<svg xmlns="http://www.w3.org/2000/svg" xmlns:xlink="http://www.w3.org/1999/xlink" width="500" zoomAndPan="magnify" viewBox="0 0 375 374.999991" height="500" preserveAspectRatio="xMidYMid meet" version="1.0"><defs><g/><clipPath id="663d54a5a2"><path d="M 37 124.925781 L 170.128906 124.925781 L 170.128906 183 L 37 183 Z M 37 124.925781 " clip-rule="nonzero"/></clipPath><clipPath id="2c97fd959f"><path d="M 3.878906 163 L 137 163 L 137 222 L 3.878906 222 Z M 3.878906 163 " clip-rule="nonzero"/></clipPath><clipPath id="1465192f67"><path d="M 37 223 L 69 223 L 69 240.46875 L 37 240.46875 Z M 37 223 " clip-rule="nonzero"/></clipPath><clipPath id="0d291f9e83"><path d="M 142.984375 124.925781 L 210 124.925781 L 210 194.75 L 142.984375 194.75 Z M 142.984375 124.925781 " clip-rule="nonzero"/></clipPath><clipPath id="0c7f702f4c"><path d="M 191 145 L 211.976562 145 L 211.976562 180 L 191 180 Z M 191 145 " clip-rule="nonzero"/></clipPath><clipPath id="65544b935b"><path d="M 215.929688 220.699219 L 252 220.699219 L 252 238 L 215.929688 238 Z M 215.929688 220.699219 " clip-rule="nonzero"/></clipPath><clipPath id="cb14b1901b"><path d="M 276 240 L 307.367188 240 L 307.367188 245 L 276 245 Z M 276 240 " clip-rule="nonzero"/></clipPath><clipPath id="68cb70d3aa"><path d="M 290 245 L 302 245 L 302 248.128906 L 290 248.128906 Z M 290 245 " clip-rule="nonzero"/></clipPath><clipPath id="eb3ccf5836"><path d="M 314.917969 213.054688 L 345.671875 213.054688 L 345.671875 247.96875 L 314.917969 247.96875 Z M 314.917969 213.054688 " clip-rule="nonzero"/></clipPath></defs><g clip-path="url(#663d54a5a2)"><path fill="#ed1c24" d="M 78.097656 163.675781 C 76.167969 167.070312 74.441406 170.121094 72.699219 173.15625 C 71.097656 175.953125 69.453125 178.730469 67.863281 181.53125 C 67.390625 182.367188 66.816406 182.742188 65.796875 182.730469 C 60.292969 182.675781 54.792969 182.734375 49.292969 182.65625 C 48.660156 182.644531 47.753906 182.207031 47.445312 181.691406 C 44.074219 175.96875 40.78125 170.207031 37.527344 164.417969 C 37.273438 163.957031 37.246094 163.105469 37.5 162.660156 C 44.558594 150.332031 51.648438 138.03125 58.804688 125.769531 C 59.085938 125.285156 60.054688 124.964844 60.710938 124.960938 C 69.351562 124.90625 77.984375 124.925781 86.625 124.925781 C 113.457031 124.925781 140.289062 124.933594 167.121094 124.933594 C 167.972656 124.933594 168.832031 124.933594 170.039062 124.933594 C 169.175781 126.542969 168.496094 127.890625 167.738281 129.195312 C 165.085938 133.777344 162.359375 138.3125 159.769531 142.933594 C 159.179688 143.992188 158.511719 144.296875 157.382812 144.292969 C 142.808594 144.265625 128.234375 144.28125 113.660156 144.28125 C 99.714844 144.285156 85.769531 144.296875 71.816406 144.265625 C 70.65625 144.257812 70.027344 144.605469 69.445312 145.648438 C 66.363281 151.148438 63.171875 156.582031 60.027344 162.039062 C 59.253906 163.382812 59.355469 163.5625 60.878906 163.5625 C 65.707031 163.558594 70.53125 163.53125 75.359375 163.53125 C 76.152344 163.539062 76.953125 163.617188 78.097656 163.675781 Z M 78.097656 163.675781 " fill-opacity="1" fill-rule="nonzero"/></g><g clip-path="url(#2c97fd959f)"><path fill="#ed1c24" d="M 95.6875 182.558594 C 97.085938 180.078125 98.339844 177.820312 99.628906 175.585938 C 101.769531 171.882812 103.910156 168.175781 106.136719 164.527344 C 106.4375 164.03125 107.246094 163.574219 107.828125 163.570312 C 113.324219 163.5 118.828125 163.546875 124.328125 163.503906 C 125.375 163.5 125.980469 163.824219 126.503906 164.757812 C 129.621094 170.285156 132.785156 175.789062 135.980469 181.269531 C 136.578125 182.292969 136.640625 183.042969 135.996094 184.152344 C 129.050781 196.078125 122.160156 208.039062 115.328125 220.035156 C 114.699219 221.136719 113.949219 221.324219 112.871094 221.324219 C 98.296875 221.304688 83.726562 221.296875 69.152344 221.296875 C 47.824219 221.300781 26.496094 221.3125 5.164062 221.320312 C 4.839844 221.320312 4.515625 221.25 3.984375 221.191406 C 4.191406 220.609375 4.292969 220.105469 4.539062 219.679688 C 7.660156 214.203125 10.824219 208.746094 13.917969 203.261719 C 14.46875 202.285156 15.144531 201.972656 16.234375 201.972656 C 44.753906 201.992188 73.277344 201.976562 101.792969 202.007812 C 103.054688 202.007812 103.714844 201.664062 104.359375 200.511719 C 107.402344 195.046875 110.582031 189.660156 113.707031 184.242188 C 114.425781 182.996094 114.308594 182.746094 112.902344 182.742188 C 107.789062 182.71875 102.675781 182.726562 97.5625 182.710938 C 97.019531 182.703125 96.46875 182.625 95.6875 182.558594 Z M 95.6875 182.558594 " fill-opacity="1" fill-rule="nonzero"/></g><path fill="#ed1c24" d="M 113.050781 146.878906 C 112.195312 148.453125 111.546875 149.703125 110.84375 150.921875 C 104.824219 161.390625 98.796875 171.851562 92.769531 182.316406 C 89.738281 187.566406 86.683594 192.804688 83.667969 198.066406 C 83.125 199.015625 82.40625 199.367188 81.320312 199.359375 C 75.003906 199.328125 68.679688 199.355469 62.363281 199.34375 C 61.0625 199.34375 60.886719 198.941406 61.582031 197.730469 C 66.921875 188.484375 72.257812 179.230469 77.585938 169.976562 C 81.640625 162.941406 85.71875 155.910156 89.714844 148.839844 C 90.515625 147.421875 91.417969 146.8125 93.128906 146.835938 C 99.585938 146.949219 106.046875 146.878906 113.050781 146.878906 Z M 113.050781 146.878906 " fill-opacity="1" fill-rule="nonzero"/><g clip-path="url(#1465192f67)"><path fill="#ed1c24" d="M 68.625 224 C 67.15625 226.566406 65.820312 228.886719 64.488281 231.214844 C 62.984375 233.84375 61.460938 236.457031 60 239.105469 C 59.511719 240 58.902344 240.464844 57.847656 240.464844 C 51.292969 240.441406 44.734375 240.457031 38.175781 240.453125 C 37.917969 240.453125 37.648438 240.347656 37.144531 240.234375 C 37.957031 238.769531 38.671875 237.4375 39.429688 236.128906 C 41.585938 232.378906 43.734375 228.617188 45.96875 224.914062 C 46.273438 224.410156 47.066406 223.902344 47.636719 223.890625 C 54.242188 223.824219 60.847656 223.84375 67.453125 223.847656 C 67.726562 223.847656 67.996094 223.917969 68.625 224 Z M 68.625 224 " fill-opacity="1" fill-rule="nonzero"/></g><g clip-path="url(#0d291f9e83)"><path fill="#000000" d="M 208.984375 183.242188 C 208.75 183.242188 208.511719 183.230469 208.289062 183.242188 C 206.851562 183.3125 205.386719 183.214844 203.992188 183.480469 C 201.382812 183.953125 198.859375 184.722656 196.570312 186.171875 C 194.992188 187.175781 193.554688 188.320312 192.257812 189.632812 C 191.519531 190.371094 190.890625 191.222656 190.109375 191.90625 C 189.441406 192.476562 188.660156 192.953125 187.878906 193.355469 C 187.042969 193.777344 186.148438 194.136719 185.253906 194.390625 C 184.222656 194.667969 183.175781 194.460938 182.144531 194.179688 C 179.84375 193.550781 177.929688 192.183594 175.878906 191.070312 C 174.835938 190.511719 173.648438 190.21875 172.503906 189.871094 C 170.46875 189.253906 168.359375 189.199219 166.253906 189.117188 C 165.125 189.074219 163.964844 189.226562 162.835938 189.339844 C 162.125 189.410156 161.414062 189.492188 160.714844 189.644531 C 159.921875 189.8125 159.152344 190.066406 158.371094 190.273438 C 157.285156 190.566406 156.183594 190.832031 155.109375 191.179688 C 154.621094 191.335938 154.1875 191.667969 153.726562 191.90625 C 153.601562 191.976562 153.476562 192.019531 153.28125 192.117188 C 155.191406 189.617188 157.464844 187.722656 160.074219 186.117188 C 159.179688 185.476562 158.316406 185.671875 157.605469 185.976562 C 155.957031 186.6875 154.394531 187.566406 152.792969 188.375 C 151.871094 188.835938 150.949219 189.285156 150.03125 189.730469 C 149.988281 189.675781 149.960938 189.617188 149.917969 189.5625 C 150.644531 188.796875 151.398438 188.054688 152.109375 187.273438 C 153.238281 186.046875 154.339844 184.792969 155.457031 183.535156 C 155.625 183.355469 155.792969 183.171875 155.945312 182.992188 C 156.238281 182.628906 156.125 182.378906 155.695312 182.378906 C 155.304688 182.378906 154.898438 182.488281 154.523438 182.585938 C 152.082031 183.160156 149.722656 183.953125 147.421875 184.957031 C 145.929688 185.613281 144.574219 186.421875 143.292969 187.398438 C 143.234375 187.441406 143.136719 187.429688 142.984375 187.332031 C 143.527344 186.855469 144.058594 186.339844 144.628906 185.90625 C 145.691406 185.097656 146.722656 184.261719 147.851562 183.578125 C 149.25 182.742188 150.683594 181.988281 152.164062 181.304688 C 153.070312 180.886719 154.0625 180.59375 155.039062 180.355469 C 156.628906 179.964844 158.261719 179.671875 159.851562 179.292969 C 161.316406 178.945312 162.753906 178.484375 164.21875 178.164062 C 164.777344 178.039062 165.375 178.207031 165.960938 178.21875 C 166.4375 178.234375 166.925781 178.21875 167.511719 178.21875 C 167.871094 178.863281 168.375 179.628906 168.75 180.453125 C 169.015625 181.023438 169.113281 181.679688 169.335938 182.28125 C 169.5625 182.851562 169.867188 183.394531 170.117188 183.953125 C 170.382812 184.566406 170.886719 185.042969 171.066406 185.710938 C 171.136719 185.949219 171.527344 186.101562 171.710938 186.355469 C 172.503906 187.078125 173.300781 187.804688 174.109375 188.53125 C 174.21875 188.921875 174.386719 189.214844 175.03125 189.269531 C 175.390625 189.296875 175.714844 189.714844 176.0625 189.953125 C 176.480469 190.246094 176.886719 190.566406 177.34375 190.804688 C 177.625 190.945312 177.988281 190.929688 178.292969 191 C 179.84375 191.363281 181.390625 191.179688 182.941406 191.042969 C 183.539062 190.984375 184.152344 191.097656 184.753906 191.054688 C 185.074219 191.027344 185.449219 190.902344 185.6875 190.691406 C 186.132812 190.316406 186.777344 190.164062 187.027344 189.519531 C 187.363281 188.683594 188.214844 188.277344 188.730469 187.582031 C 188.867188 187.386719 188.953125 187.148438 189.050781 186.96875 C 189.875 186.757812 190.5 186.3125 190.988281 185.628906 C 191.171875 185.390625 191.503906 185.265625 191.660156 185.015625 C 191.867188 184.75 192.132812 184.511719 192.300781 184.21875 C 192.609375 183.675781 193 183.132812 193.125 182.546875 C 193.347656 181.457031 193.332031 180.328125 193.554688 179.238281 C 193.765625 178.25 194.128906 177.285156 194.476562 176.324219 C 194.644531 175.847656 194.421875 175.445312 193.847656 175.304688 C 193.597656 175.234375 193.375 175.054688 193.125 174.941406 C 192.941406 174.871094 192.761719 174.800781 192.566406 174.773438 C 192.21875 174.71875 191.855469 174.664062 191.503906 174.675781 C 191.269531 174.691406 190.949219 174.789062 190.820312 174.957031 C 190.5 175.402344 190.390625 176.101562 189.984375 176.335938 C 189.371094 176.699219 189.203125 177.789062 188.351562 177.566406 C 188.839844 177.007812 189.386719 176.394531 189.914062 175.777344 C 190.277344 175.359375 190.304688 174.929688 189.972656 174.496094 C 189.398438 173.757812 188.8125 173.015625 188.214844 172.292969 C 187.390625 171.300781 186.957031 170.128906 186.664062 168.902344 C 186.636719 168.777344 186.679688 168.636719 186.71875 168.496094 C 187.125 169.976562 187.640625 171.355469 189.355469 171.902344 C 189.160156 171.328125 188.882812 170.785156 188.769531 170.199219 C 188.535156 169.011719 188.269531 167.828125 188.214844 166.628906 C 188.117188 164.882812 188.183594 163.125 188.183594 161.367188 C 188.128906 161.339844 188.074219 161.3125 188.019531 161.269531 C 187.824219 161.523438 187.65625 161.816406 187.402344 162.023438 C 186.511719 162.804688 185.644531 163.613281 184.683594 164.285156 C 183.46875 165.132812 182.925781 166.292969 182.828125 167.757812 C 182.453125 166.335938 182.128906 164.828125 180.175781 165.132812 C 178.753906 165.371094 178.292969 166.488281 178.210938 167.867188 C 178.058594 167.800781 177.945312 167.785156 177.875 167.714844 C 176.898438 166.792969 176.453125 166.402344 174.890625 167.394531 C 173.800781 168.09375 172.671875 168.886719 172.53125 170.324219 C 172.460938 171.050781 172.503906 171.914062 172.824219 172.542969 C 173.496094 173.796875 174.304688 174.996094 175.226562 176.070312 C 175.964844 176.9375 176.984375 177.566406 178.335938 177.621094 C 178.390625 176.867188 178.460938 176.101562 178.476562 175.332031 C 178.503906 174.550781 178.476562 173.757812 178.476562 172.976562 C 178.53125 172.960938 178.601562 172.960938 178.65625 172.945312 C 178.894531 174.105469 179.101562 175.261719 179.355469 176.40625 C 179.464844 176.910156 179.480469 177.550781 179.800781 177.886719 C 180.5 178.625 181.320312 178.289062 181.65625 177.566406 C 182.089844 176.628906 182.421875 175.667969 182.871094 174.550781 C 182.871094 175.066406 182.84375 175.457031 182.871094 175.835938 C 182.925781 176.40625 182.96875 177.007812 183.136719 177.550781 C 183.203125 177.789062 183.566406 178.066406 183.820312 178.082031 C 184.667969 178.136719 185.519531 178.511719 186.386719 178.152344 C 186.496094 178.109375 186.652344 178.152344 186.777344 178.152344 C 186.816406 178.207031 186.847656 178.277344 186.886719 178.332031 C 186.71875 178.429688 186.566406 178.570312 186.398438 178.625 C 186.050781 178.75 185.675781 178.835938 185.3125 178.933594 C 185.226562 178.960938 185.144531 179 185.074219 179.015625 C 184.375 179.226562 183.679688 179.476562 182.96875 179.601562 C 182.382812 179.714844 181.78125 179.683594 181.183594 179.699219 C 180.792969 179.714844 180.402344 179.714844 179.996094 179.683594 C 179.4375 179.65625 178.921875 179.699219 178.351562 179.40625 C 177.832031 179.128906 177.09375 179.265625 176.453125 179.210938 C 175.824219 179.167969 175.210938 179.238281 174.597656 178.820312 C 174.054688 178.457031 173.3125 178.386719 172.769531 178.21875 C 172.199219 177.761719 171.679688 177.300781 171.136719 176.910156 C 170.734375 176.628906 170.285156 176.394531 169.839844 176.183594 C 169.210938 175.890625 168.585938 175.597656 167.929688 175.417969 C 167.761719 175.375 167.441406 175.695312 167.257812 175.917969 C 167.105469 176.101562 167.078125 176.378906 166.9375 176.558594 C 166.8125 176.699219 166.519531 176.882812 166.421875 176.824219 C 166.226562 176.714844 165.988281 176.476562 165.960938 176.265625 C 165.820312 175.152344 165.988281 174.078125 166.617188 173.113281 C 167.203125 172.234375 167.453125 171.246094 167.425781 170.183594 C 167.398438 169.265625 167.425781 168.328125 167.246094 167.4375 C 167.160156 167.058594 166.660156 166.628906 166.269531 166.488281 C 165.753906 166.304688 165.222656 166.53125 164.886719 167.058594 C 164.46875 167.714844 164.023438 167.785156 163.5625 167.183594 C 163.128906 166.628906 162.640625 166.738281 162.195312 166.921875 C 161.75 167.101562 161.328125 167.4375 161.316406 168.007812 C 161.300781 168.484375 161.316406 168.957031 161.21875 169.488281 C 161.203125 169.445312 161.175781 169.390625 161.164062 169.347656 C 160.953125 167.769531 160.742188 166.179688 162.082031 164.925781 C 162.472656 164.5625 162.863281 164.171875 163.183594 163.753906 C 163.546875 163.265625 163.785156 162.777344 163.660156 162.078125 C 163.492188 161.0625 163.714844 160.058594 164.355469 159.21875 C 164.902344 158.496094 165 157.714844 164.859375 156.863281 C 164.707031 155.914062 164.484375 154.980469 164.371094 154.03125 C 164.34375 153.75 164.511719 153.375 164.707031 153.152344 C 165.25 152.550781 165.472656 151.882812 165.515625 151.085938 C 165.558594 150.125 165.667969 149.160156 165.78125 148.199219 C 165.808594 147.960938 165.960938 147.753906 166.03125 147.527344 C 166.085938 147.332031 166.171875 147.097656 166.128906 146.902344 C 166.015625 146.453125 165.835938 146.023438 165.695312 145.574219 C 165.195312 143.972656 165.738281 142.660156 166.757812 141.417969 C 167.1875 140.886719 167.425781 140.175781 167.746094 139.550781 C 167.886719 139.269531 168.039062 139.003906 168.347656 138.726562 C 168.417969 138.976562 168.457031 139.226562 168.542969 139.464844 C 168.808594 140.261719 169.367188 140.777344 170.160156 140.984375 C 171.09375 141.238281 172.03125 141.390625 172.867188 140.609375 C 173.453125 140.050781 173.480469 139.773438 172.921875 139.199219 C 172.308594 138.585938 171.722656 137.972656 171.125 137.34375 C 171.066406 137.289062 170.996094 137.191406 171.011719 137.121094 C 171.304688 135.9375 171.417969 134.707031 172.265625 133.703125 C 173.046875 132.78125 173.925781 132.894531 174.875 133.230469 C 175.351562 133.398438 175.796875 133.648438 176.285156 133.871094 C 176.507812 133.453125 176.71875 133.0625 176.914062 132.671875 C 177.582031 131.304688 179.117188 130.96875 180.304688 131.945312 C 180.902344 132.433594 181.585938 132.753906 182.492188 132.546875 C 183.289062 132.363281 184.140625 132.503906 185.003906 132.503906 C 184.808594 129.546875 185.492188 126.894531 187.976562 124.984375 C 188.046875 125.011719 188.128906 125.027344 188.199219 125.054688 C 188.074219 126.015625 187.933594 126.992188 187.824219 127.957031 C 187.585938 129.964844 187.710938 131.945312 188.464844 133.84375 C 188.925781 134.988281 189.777344 135.839844 190.78125 136.5625 C 191.964844 137.429688 193.320312 137.902344 194.714844 138.25 C 195.621094 138.476562 196.554688 138.574219 197.492188 138.683594 C 197.921875 138.738281 198.371094 138.699219 198.984375 138.699219 C 198.019531 139.492188 197.015625 139.882812 195.984375 139.996094 C 194.15625 140.203125 192.316406 140.136719 190.570312 139.355469 C 190.332031 139.242188 190.097656 139.03125 189.972656 138.808594 C 189.734375 138.40625 189.609375 137.945312 189.386719 137.539062 C 188.757812 136.382812 186.832031 136.046875 185.996094 136.925781 C 185.839844 137.078125 185.714844 137.273438 185.632812 137.484375 C 185.226562 138.417969 185.410156 138.710938 186.441406 138.699219 C 187.515625 138.683594 188.410156 138.992188 188.898438 140.023438 C 189.035156 140.316406 189.0625 140.664062 189.078125 140.984375 C 189.105469 141.515625 189.09375 142.058594 189.09375 142.785156 C 189.789062 142.464844 190.375 142.1875 191.003906 141.894531 C 191.28125 142.578125 191.4375 143.121094 190.988281 143.847656 C 189.746094 145.898438 189.929688 147.976562 191.242188 149.957031 C 191.964844 151.058594 192.789062 152.117188 192.832031 153.5 C 192.84375 154.167969 192.621094 154.839844 192.441406 155.507812 C 192.371094 155.773438 192.160156 155.996094 191.882812 156.234375 C 191.980469 155.550781 192.050781 154.867188 192.1875 154.183594 C 192.371094 153.320312 192.273438 152.496094 191.9375 151.699219 C 191.632812 150.988281 190.65625 150.472656 190.222656 150.835938 C 190 151.03125 189.902344 151.367188 189.621094 151.644531 C 189.621094 150.292969 189.679688 148.9375 189.609375 147.597656 C 189.496094 145.296875 188.507812 143.398438 186.816406 141.835938 C 185.617188 140.734375 184.488281 139.535156 183.203125 138.53125 C 182.453125 137.945312 181.515625 137.554688 180.597656 137.234375 C 179.464844 136.84375 178.140625 138.015625 178.167969 139.339844 C 178.195312 140.511719 178.238281 141.683594 178.433594 142.828125 C 178.546875 143.484375 178.894531 144.125 179.242188 144.710938 C 179.605469 145.3125 179.621094 145.9375 179.621094 146.59375 C 179.621094 147.304688 179.621094 148.03125 179.621094 148.730469 C 178.613281 149.050781 177.441406 149.0625 177.207031 150.359375 C 177.066406 151.085938 177.414062 151.601562 178.335938 151.8125 C 177.820312 152.246094 177.402344 152.566406 177.039062 152.929688 C 176.757812 153.207031 176.242188 153.570312 176.632812 153.988281 C 177.082031 154.460938 177.472656 153.890625 177.75 153.613281 C 179.480469 151.855469 181.265625 152.0625 183.007812 153.417969 C 183.527344 153.820312 183.957031 154.308594 184.433594 154.753906 C 184.363281 154.851562 184.292969 154.949219 184.238281 155.035156 C 183.917969 154.867188 183.554688 154.753906 183.289062 154.53125 C 181.515625 153.027344 179.675781 153.234375 177.777344 154.253906 C 176.996094 154.671875 176.214844 155.046875 175.363281 155.496094 C 175.378906 155.664062 175.378906 155.96875 175.433594 156.277344 C 175.488281 156.609375 176.339844 156.75 176.789062 156.445312 C 177.34375 156.082031 177.832031 155.605469 178.390625 155.257812 C 178.65625 155.089844 179.019531 154.992188 179.328125 155.035156 C 179.996094 155.105469 180.664062 155.257812 181.433594 155.398438 C 181.167969 155.648438 180.917969 155.898438 180.652344 156.136719 C 180.050781 156.667969 179.4375 157.195312 178.824219 157.742188 C 178.683594 157.867188 178.515625 157.976562 178.460938 158.132812 C 178.308594 158.578125 178.085938 159.050781 178.125 159.511719 C 178.140625 159.667969 178.851562 159.832031 179.242188 159.847656 C 181.140625 159.917969 183.023438 159.972656 184.921875 159.929688 C 185.632812 159.917969 186.34375 159.609375 187.011719 159.441406 C 187.011719 159.792969 186.664062 160.167969 185.953125 160.292969 C 185.269531 160.417969 184.570312 160.53125 183.886719 160.515625 C 180.707031 160.476562 177.527344 160.460938 174.359375 160.253906 C 173.605469 160.210938 172.894531 159.484375 172.167969 159.066406 C 171.875 158.898438 171.582031 158.691406 171.234375 158.453125 C 171.847656 160.433594 173.886719 161.703125 176.035156 161.394531 C 177.316406 161.214844 178.613281 161.003906 179.898438 160.976562 C 181.640625 160.949219 183.398438 161.214844 185.144531 161.160156 C 187.265625 161.089844 188.144531 160.363281 188.898438 158.339844 C 188.910156 158.285156 188.980469 158.257812 189.105469 158.105469 C 189.105469 158.828125 189.035156 159.441406 189.121094 160.027344 C 189.230469 160.769531 189.875 161.214844 190.613281 161.171875 C 191.210938 161.144531 191.601562 160.726562 191.714844 159.945312 C 191.785156 159.5 191.839844 159.039062 191.910156 158.496094 C 192.398438 159.121094 192.246094 159.75 192.230469 160.351562 C 192.175781 163.542969 191.867188 166.738281 192.804688 169.878906 C 193.179688 171.148438 193.933594 172.207031 194.839844 173.15625 C 195.089844 173.421875 195.382812 173.660156 195.59375 173.964844 C 193.390625 172.667969 192.089844 170.714844 191.449219 168.257812 C 190.722656 169.277344 191.101562 171.59375 191.769531 172.597656 C 193 174.441406 194.785156 175.375 196.90625 175.722656 C 197.867188 175.875 198.285156 176.558594 197.769531 177.382812 C 196.597656 179.210938 195.371094 181.011719 194.171875 182.808594 C 194.074219 182.949219 193.960938 183.117188 193.933594 183.285156 C 193.90625 183.480469 193.890625 183.773438 194.003906 183.871094 C 194.128906 183.96875 194.421875 183.941406 194.601562 183.882812 C 195.789062 183.523438 196.972656 183.132812 198.144531 182.742188 C 199.738281 182.222656 201.382812 182.085938 203.054688 182.070312 C 205.105469 182.058594 207.101562 182.363281 209.027344 183.035156 C 208.984375 183.132812 208.984375 183.1875 208.984375 183.242188 Z M 197.265625 139.269531 C 197.140625 139.1875 197.070312 139.117188 197.003906 139.101562 C 196.484375 139.03125 195.957031 139.046875 195.46875 138.90625 C 193.890625 138.476562 192.285156 138.085938 190.90625 137.164062 C 189.707031 136.367188 188.6875 135.40625 188.101562 134.011719 C 187.347656 132.195312 187.195312 130.328125 187.363281 128.402344 C 187.433594 127.636719 187.53125 126.855469 187.613281 126.074219 C 187.542969 126.085938 187.472656 126.085938 187.433594 126.128906 C 187.320312 126.210938 187.222656 126.296875 187.140625 126.394531 C 185.546875 128.234375 185.1875 130.398438 185.535156 132.726562 C 185.5625 132.878906 185.644531 133.089844 185.773438 133.171875 C 186.71875 133.828125 187.167969 134.890625 186.902344 136.101562 C 188.5625 135.796875 189.539062 136.730469 190.027344 138.097656 C 190.375 139.0625 191.015625 139.269531 191.828125 139.421875 C 192.257812 139.507812 192.707031 139.589844 193.136719 139.6875 C 194.519531 139.996094 195.859375 139.8125 197.265625 139.269531 Z M 172.058594 148.574219 C 172.839844 148.296875 173.550781 147.949219 174.289062 147.808594 C 175.253906 147.625 176.242188 147.640625 177.21875 147.542969 C 177.917969 147.472656 178.320312 146.875 178.058594 146.355469 C 177.777344 145.8125 177.316406 145.410156 176.71875 145.394531 C 175.574219 145.367188 174.414062 145.199219 173.300781 145.785156 C 172.238281 146.34375 171.613281 147.640625 172.058594 148.574219 Z M 181.097656 134.207031 C 181.238281 133.355469 180.820312 132.796875 180.191406 132.324219 C 179.746094 131.988281 179.171875 132.015625 178.769531 132.40625 C 178 133.171875 177.804688 134.109375 177.972656 135.125 C 178.015625 135.378906 178.195312 135.671875 178.40625 135.824219 C 179.019531 136.269531 179.71875 136.171875 180.371094 135.921875 C 181.195312 135.601562 181.042969 134.847656 181.097656 134.207031 Z M 182.382812 133.203125 C 184.195312 133.71875 184.78125 135.027344 184.753906 136.71875 C 185.675781 136.828125 186.132812 136.285156 186.523438 135.671875 C 186.816406 135.210938 186.59375 134.777344 186.328125 134.359375 C 185.632812 133.214844 184.179688 132.574219 182.382812 133.203125 Z M 169.15625 157.65625 C 169.324219 158.019531 169.421875 158.242188 169.53125 158.453125 C 169.660156 158.691406 169.8125 158.914062 169.910156 159.164062 C 170.175781 159.890625 169.726562 160.867188 169.140625 160.753906 C 168.710938 160.671875 168.222656 160.417969 167.929688 160.085938 C 167.539062 159.636719 167.707031 159.066406 168.039062 158.605469 C 168.261719 158.300781 168.527344 158.035156 168.792969 157.769531 C 169.101562 157.476562 169.074219 157.265625 168.765625 157 C 168.457031 156.738281 168.277344 156.722656 168.011719 157.070312 C 167.382812 157.910156 167.203125 158.828125 167.230469 159.863281 C 167.273438 161.339844 168.945312 161.730469 169.992188 161.285156 C 170.816406 160.9375 170.816406 159.625 170.410156 158.800781 C 170.175781 158.328125 169.9375 157.796875 169.15625 157.65625 Z M 162.597656 165.886719 C 163.019531 165.972656 163.253906 166.054688 163.507812 166.054688 C 164.121094 166.070312 164.734375 166.125 165.332031 166.042969 C 166.351562 165.886719 167.0625 166.335938 167.648438 167.074219 C 167.84375 167.3125 167.96875 167.605469 168.136719 167.855469 C 168.207031 167.964844 168.332031 168.035156 168.488281 168.191406 C 168.542969 167.855469 168.554688 167.632812 168.613281 167.410156 C 168.78125 166.558594 168.179688 165.386719 167.316406 165.203125 C 165.753906 164.882812 164.175781 164.589844 162.597656 165.886719 Z M 176.984375 135.976562 C 176.355469 134.179688 175.15625 133.398438 173.371094 133.480469 C 173.089844 133.496094 172.824219 133.746094 172.558594 133.898438 C 172.714844 134.121094 172.8125 134.457031 173.019531 134.539062 C 173.4375 134.695312 173.914062 134.777344 174.359375 134.777344 C 175.113281 134.777344 175.714844 135 176.214844 135.585938 C 176.382812 135.78125 176.71875 135.851562 176.984375 135.976562 Z M 176.984375 135.976562 " fill-opacity="1" fill-rule="nonzero"/></g><path fill="#000000" d="M 190.625 178.054688 C 190.363281 178.738281 189.984375 179.390625 189.84375 180.105469 C 189.609375 181.277344 188.605469 181.988281 188.242188 183.117188 C 187.851562 184.289062 187.097656 185.40625 185.8125 185.949219 C 185.074219 186.269531 184.347656 186.632812 183.582031 186.910156 C 183.300781 187.007812 182.953125 186.925781 182.648438 186.925781 C 181.613281 186.925781 180.582031 187.121094 179.578125 186.660156 C 179.0625 186.421875 178.488281 186.324219 177.945312 186.171875 C 177.832031 186.144531 177.722656 186.117188 177.625 186.0625 C 176.773438 185.558594 175.894531 185.097656 175.097656 184.511719 C 174.457031 184.039062 173.886719 183.453125 173.355469 182.851562 C 172.726562 182.15625 172.113281 181.429688 171.582031 180.648438 C 171.109375 179.949219 170.761719 179.167969 170.300781 178.472656 C 170.160156 178.25 169.867188 178.082031 169.617188 177.996094 C 169.492188 177.957031 169.28125 178.179688 169.085938 178.289062 C 169.074219 178.261719 169.003906 178.109375 168.976562 177.957031 C 168.960938 177.816406 168.960938 177.550781 169.015625 177.535156 C 169.15625 177.480469 169.367188 177.496094 169.503906 177.566406 C 170.929688 178.261719 172.199219 179.210938 173.535156 180.0625 C 173.578125 180.089844 173.605469 180.117188 173.648438 180.132812 C 174.316406 180.285156 174.988281 180.4375 175.65625 180.59375 C 176.339844 180.746094 177.023438 180.871094 177.707031 181.023438 C 177.832031 181.050781 177.972656 181.136719 178.097656 181.121094 C 179.171875 181.050781 180.246094 180.96875 181.320312 180.914062 C 181.460938 180.898438 181.601562 181.023438 181.738281 181.039062 C 182.0625 181.050781 182.394531 181.023438 182.714844 181.050781 C 183.332031 181.082031 183.832031 180.523438 184.503906 180.816406 C 184.824219 180.953125 185.269531 180.941406 185.464844 180.453125 C 185.492188 180.367188 185.578125 180.242188 185.617188 180.242188 C 186.175781 180.300781 186.582031 179.964844 187.054688 179.796875 C 187.515625 179.628906 188.144531 179.894531 188.378906 179.183594 C 188.410156 179.097656 188.714844 179.140625 188.882812 179.085938 C 189.035156 179.03125 189.300781 178.945312 189.316406 178.863281 C 189.398438 177.941406 190.097656 178.152344 190.625 178.054688 C 190.625 178.066406 190.625 178.054688 190.625 178.054688 Z M 190.625 178.054688 " fill-opacity="1" fill-rule="nonzero"/><path fill="#000000" d="M 161.621094 171.21875 C 162.167969 172.039062 162.835938 172.933594 163.367188 173.894531 C 163.605469 174.3125 163.617188 174.871094 163.703125 175.375 C 163.839844 176.167969 163.964844 176.964844 164.09375 177.761719 C 161.078125 178.164062 157.910156 178.5 154.785156 179.042969 C 151.660156 179.585938 148.859375 181.109375 145.96875 182.363281 C 145.941406 182.308594 145.914062 182.253906 145.886719 182.195312 C 146.484375 181.820312 147.042969 181.386719 147.671875 181.066406 C 148.664062 180.578125 149.695312 180.1875 150.683594 179.699219 C 150.9375 179.574219 151.117188 179.253906 151.257812 178.988281 C 151.773438 177.925781 152.277344 176.867188 152.734375 175.777344 C 153.253906 174.550781 154.242188 174.078125 155.46875 173.992188 C 156.40625 173.9375 157.355469 173.980469 158.300781 173.980469 C 158.429688 173.574219 158.539062 173.058594 158.75 172.597656 C 159.125 171.761719 159.949219 171.707031 160.714844 171.550781 C 161.023438 171.496094 161.300781 171.34375 161.621094 171.21875 Z M 161.621094 171.21875 " fill-opacity="1" fill-rule="nonzero"/><g clip-path="url(#0c7f702f4c)"><path fill="#000000" d="M 199.109375 176.015625 C 201.007812 176.40625 202.902344 176.8125 205.078125 176.085938 C 204.101562 175.164062 203.28125 174.34375 202.386719 173.601562 C 202.136719 173.40625 201.660156 173.464844 201.285156 173.449219 C 200.015625 173.40625 198.746094 173.449219 197.476562 173.308594 C 196.582031 173.226562 195.957031 172.585938 195.410156 171.886719 C 196.25 172.097656 197.03125 172.359375 197.839844 172.488281 C 198.382812 172.570312 198.957031 172.515625 199.484375 172.402344 C 199.738281 172.347656 200.03125 172.027344 200.097656 171.761719 C 200.140625 171.59375 199.863281 171.246094 199.652344 171.121094 C 198.996094 170.714844 198.300781 170.378906 197.617188 170.015625 C 196.347656 169.347656 195.859375 168.257812 195.84375 166.863281 C 195.832031 166.25 195.691406 165.621094 195.59375 165.007812 C 195.578125 164.910156 195.425781 164.828125 195.34375 164.730469 C 195.246094 164.839844 195.089844 164.9375 195.078125 165.050781 C 195.050781 165.511719 194.980469 166 195.0625 166.460938 C 195.3125 167.769531 195.621094 169.070312 195.898438 170.308594 C 195.96875 170.339844 195.886719 170.324219 195.859375 170.28125 C 195.078125 168.636719 194.226562 167.03125 194.074219 165.164062 C 193.90625 163.125 193.652344 161.117188 193.429688 159.082031 C 193.347656 158.355469 193.261719 157.628906 193.164062 156.820312 C 194.15625 156.082031 194.367188 154.15625 193.488281 152.800781 C 192.96875 152.007812 192.648438 151.226562 192.816406 150.195312 C 192.914062 149.550781 192.59375 148.796875 192.316406 148.15625 C 191.980469 147.402344 191.632812 146.175781 191.8125 145.324219 C 191.855469 145.644531 191.855469 145.980469 191.953125 146.289062 C 192.203125 147.027344 192.441406 147.78125 192.804688 148.464844 C 193.164062 149.132812 193.304688 149.816406 193.195312 150.527344 C 193.066406 151.367188 193.429688 151.992188 193.863281 152.636719 C 194.492188 153.542969 195.007812 154.519531 194.964844 155.675781 C 194.953125 156.277344 194.894531 156.890625 194.855469 157.488281 C 194.769531 158.675781 195.007812 159.792969 195.480469 160.867188 C 196.027344 162.09375 196.25 163.375 196.277344 164.714844 C 196.304688 165.832031 196.359375 166.960938 196.542969 168.0625 C 196.613281 168.453125 196.988281 168.929688 197.351562 169.125 C 199.09375 170.085938 200.628906 171.273438 201.914062 172.808594 C 202.332031 173.308594 202.929688 173.644531 203.390625 174.105469 C 204.171875 174.886719 204.980469 175.652344 205.636719 176.546875 C 206.335938 177.507812 207.285156 177.871094 208.359375 178.136719 C 209.375 178.402344 210.378906 178.738281 211.386719 179.058594 C 211.511719 179.097656 211.621094 179.238281 211.679688 179.433594 C 211.21875 179.292969 210.742188 179.167969 210.296875 179 C 208.609375 178.347656 206.894531 177.859375 205.039062 177.925781 C 204.019531 177.96875 202.929688 177.957031 201.96875 177.664062 C 200.910156 177.339844 199.945312 176.6875 198.957031 176.183594 C 199.011719 176.128906 199.054688 176.070312 199.109375 176.015625 Z M 199.109375 176.015625 " fill-opacity="1" fill-rule="nonzero"/></g><path fill="#000000" d="M 192.007812 177.96875 C 192.0625 178.121094 192.1875 178.277344 192.175781 178.414062 C 192.105469 179.085938 192.007812 179.769531 191.910156 180.4375 C 191.839844 180.96875 191.757812 181.5 191.671875 182.027344 C 191.589844 182.558594 191.492188 183.101562 191.394531 183.675781 C 190.753906 183.578125 190.558594 183.816406 190.542969 184.332031 C 190.542969 184.484375 190.363281 184.679688 190.222656 184.761719 C 189.761719 185 189.484375 185.628906 188.828125 185.445312 C 188.785156 185.433594 188.703125 185.503906 188.671875 185.558594 C 188.3125 186.046875 188.046875 186.6875 187.558594 186.996094 C 187.082031 187.289062 186.859375 187.679688 186.554688 188.054688 C 186.414062 188.238281 186.273438 188.417969 186.148438 188.601562 C 186.066406 188.710938 186.023438 188.863281 185.925781 188.921875 C 185.269531 189.242188 184.628906 189.675781 183.929688 189.8125 C 183.175781 189.96875 182.367188 189.839844 181.574219 189.871094 C 180.917969 189.898438 180.246094 190.066406 179.605469 189.980469 C 178.851562 189.882812 178.070312 189.644531 177.386719 189.324219 C 176.621094 188.960938 175.9375 188.433594 175.226562 187.957031 C 175.070312 187.859375 174.945312 187.691406 174.804688 187.554688 C 174.652344 187.398438 174.542969 187.121094 174.359375 187.078125 C 173.691406 186.910156 173.425781 186.324219 173.019531 185.894531 C 172.796875 185.640625 172.40625 185.542969 172.210938 185.28125 C 171.679688 184.625 171.207031 183.953125 171.027344 183.074219 C 170.929688 182.585938 170.46875 182.167969 170.214844 181.695312 C 170.078125 181.429688 170.035156 181.121094 169.953125 180.828125 C 170.007812 180.800781 170.0625 180.789062 170.105469 180.757812 C 170.371094 181.164062 170.605469 181.582031 170.914062 181.960938 C 171.332031 182.449219 171.863281 182.851562 172.226562 183.382812 C 172.882812 184.304688 173.886719 184.792969 174.722656 185.476562 C 175.238281 185.894531 175.726562 186.339844 176.285156 186.703125 C 176.648438 186.925781 177.109375 186.996094 177.511719 187.148438 C 178.195312 187.398438 179.035156 187.484375 179.523438 187.957031 C 180.148438 188.570312 180.957031 188.054688 181.542969 188.558594 C 181.640625 188.640625 181.921875 188.488281 182.117188 188.460938 C 182.285156 188.433594 182.453125 188.375 182.617188 188.390625 C 183.527344 188.445312 184.308594 188.210938 185.03125 187.527344 C 185.464844 187.75 185.9375 187.847656 186.21875 187.164062 C 186.273438 187.023438 186.554688 186.96875 186.707031 186.855469 C 186.914062 186.703125 187.109375 186.535156 187.304688 186.382812 C 187.390625 186.3125 187.460938 186.1875 187.542969 186.1875 C 188.144531 186.171875 188.367188 185.867188 188.410156 185.292969 C 188.421875 185.140625 188.742188 185.042969 188.839844 184.875 C 189.121094 184.359375 189.355469 183.816406 189.609375 183.285156 C 189.707031 183.089844 189.816406 182.894531 189.929688 182.710938 C 190.070312 182.476562 190.207031 182.238281 190.363281 182 C 190.5 181.765625 190.65625 181.539062 190.808594 181.304688 C 190.863281 181.21875 190.960938 181.136719 191.003906 181.050781 C 191.296875 180.398438 191.601562 179.742188 191.855469 179.058594 C 191.953125 178.765625 191.910156 178.414062 191.9375 178.09375 C 191.9375 178.011719 191.980469 177.984375 192.007812 177.96875 Z M 192.007812 177.96875 " fill-opacity="1" fill-rule="nonzero"/><path fill="#000000" d="M 188.3125 147.25 C 187.597656 146.691406 186.914062 146.105469 186.191406 145.5625 C 185.214844 144.824219 184.070312 144.765625 182.925781 144.960938 C 182.074219 145.101562 181.710938 145.671875 181.671875 146.875 C 181.65625 147.472656 181.851562 148.085938 181.964844 148.6875 C 181.992188 148.867188 182.046875 149.0625 182.101562 149.34375 C 181.65625 149.175781 181.320312 149.0625 181.015625 148.894531 C 180.859375 148.8125 180.695312 148.601562 180.695312 148.449219 C 180.707031 147.011719 180.722656 145.574219 180.832031 144.152344 C 180.902344 143.359375 181.363281 142.980469 182.171875 142.9375 C 184.667969 142.800781 186.875 143.621094 187.960938 146.289062 C 188.085938 146.59375 188.28125 146.886719 188.449219 147.179688 C 188.410156 147.207031 188.367188 147.222656 188.3125 147.25 Z M 188.3125 147.25 " fill-opacity="1" fill-rule="nonzero"/><path fill="#000000" d="M 179.96875 137.820312 C 180.664062 138.894531 181.222656 139.941406 181.113281 141.222656 C 181.042969 142.003906 180.386719 142.714844 179.800781 142.449219 C 179.339844 142.242188 178.851562 141.726562 178.726562 141.25 C 178.433594 140.148438 179.046875 138.628906 179.96875 137.820312 Z M 179.914062 138.390625 C 179.230469 139.394531 178.769531 140.359375 179.171875 141.460938 C 179.285156 141.753906 179.730469 141.992188 180.078125 142.089844 C 180.21875 142.128906 180.597656 141.726562 180.652344 141.488281 C 180.890625 140.386719 180.566406 139.394531 179.914062 138.390625 Z M 179.914062 138.390625 " fill-opacity="1" fill-rule="nonzero"/><path fill="#000000" d="M 182.550781 147.722656 C 182.492188 147.683594 182.367188 147.613281 182.269531 147.5 C 181.878906 147.039062 182.003906 146.523438 182.589844 146.496094 C 183.804688 146.414062 185.074219 146.21875 186.191406 146.914062 C 186.554688 147.136719 186.804688 147.542969 187.042969 147.90625 C 187.125 148.03125 187.011719 148.269531 186.984375 148.464844 C 186.816406 148.40625 186.621094 148.394531 186.496094 148.296875 C 185.828125 147.765625 185.171875 147.167969 184.292969 147 C 183.820312 146.914062 183.316406 146.886719 182.84375 146.957031 C 182.714844 146.972656 182.660156 147.417969 182.550781 147.722656 Z M 182.550781 147.722656 " fill-opacity="1" fill-rule="nonzero"/><path fill="#000000" d="M 189.957031 153.75 C 189.804688 152.957031 189.984375 152.34375 190.390625 151.769531 C 190.667969 151.394531 190.917969 151.394531 191.171875 151.769531 C 191.769531 152.664062 191.519531 155.007812 190.738281 155.71875 C 190.558594 155.886719 190.304688 155.984375 190.097656 156.109375 C 190.011719 155.859375 189.929688 155.59375 189.832031 155.285156 C 190.597656 155.480469 190.988281 155.214844 191.003906 154.53125 C 191.015625 153.695312 191.003906 152.859375 191.003906 152.019531 C 190.917969 151.992188 190.835938 151.964844 190.753906 151.9375 C 190.5 152.523438 190.25 153.082031 189.957031 153.75 Z M 189.957031 153.75 " fill-opacity="1" fill-rule="nonzero"/><path fill="#000000" d="M 189.484375 159.082031 C 189.386719 158.523438 189.761719 158.269531 190.25 158.285156 C 190.820312 158.300781 191.015625 158.71875 191.015625 159.277344 C 191.015625 159.820312 190.710938 160.113281 190.277344 160.253906 C 189.984375 160.320312 189.484375 159.570312 189.484375 159.082031 Z M 189.484375 159.082031 " fill-opacity="1" fill-rule="nonzero"/><path fill="#000000" d="M 164.84375 168.777344 C 165.835938 168.941406 166.324219 170.085938 165.808594 170.699219 C 165.695312 170.839844 165.402344 170.894531 165.222656 170.882812 C 165.082031 170.867188 164.886719 170.644531 164.875 170.503906 C 164.816406 169.933594 164.84375 169.375 164.84375 168.777344 Z M 164.84375 168.777344 " fill-opacity="1" fill-rule="nonzero"/><path fill="#000000" d="M 164.007812 168.191406 C 164.0625 168.957031 164.132812 169.625 164.148438 170.296875 C 164.148438 170.4375 163.925781 170.660156 163.769531 170.6875 C 163.632812 170.730469 163.394531 170.617188 163.269531 170.492188 C 162.921875 170.144531 162.960938 169.488281 163.296875 169.082031 C 163.492188 168.832031 163.6875 168.582031 164.007812 168.191406 Z M 164.007812 168.191406 " fill-opacity="1" fill-rule="nonzero"/><path fill="#000000" d="M 190.625 178.066406 C 190.515625 177.578125 190.542969 177.175781 191.015625 176.824219 C 191.253906 176.65625 191.324219 176.265625 191.476562 175.988281 C 191.535156 176.003906 191.589844 176.003906 191.660156 176.015625 C 191.601562 176.265625 191.589844 176.519531 191.492188 176.753906 C 191.367188 177.089844 191.210938 177.410156 191.015625 177.71875 C 190.933594 177.859375 190.753906 177.941406 190.613281 178.054688 C 190.625 178.054688 190.625 178.066406 190.625 178.066406 Z M 190.625 178.066406 " fill-opacity="1" fill-rule="nonzero"/><path fill="#000000" d="M 180.804688 150.097656 C 181.152344 150.234375 181.503906 150.375 181.851562 150.515625 C 181.753906 150.652344 181.585938 150.933594 181.558594 150.917969 C 181.238281 150.792969 180.945312 150.613281 180.636719 150.445312 C 180.695312 150.332031 180.75 150.207031 180.804688 150.097656 Z M 180.804688 150.097656 " fill-opacity="1" fill-rule="nonzero"/><path fill="#000000" d="M 179.453125 150.515625 C 179.1875 150.625 178.9375 150.75 178.671875 150.835938 C 178.65625 150.835938 178.558594 150.613281 178.503906 150.488281 C 178.769531 150.375 179.035156 150.25 179.296875 150.136719 C 179.355469 150.261719 179.394531 150.390625 179.453125 150.515625 Z M 179.453125 150.515625 " fill-opacity="1" fill-rule="nonzero"/><path fill="#000000" d="M 169.308594 178.777344 C 169.53125 179.292969 169.757812 179.824219 169.980469 180.339844 C 169.921875 180.367188 169.882812 180.382812 169.824219 180.410156 C 169.5625 179.894531 169.308594 179.390625 169.042969 178.875 C 169.128906 178.847656 169.210938 178.804688 169.308594 178.777344 Z M 169.308594 178.777344 " fill-opacity="1" fill-rule="nonzero"/><path fill="#000000" d="M 172.28125 148.058594 C 173.105469 146.230469 176.144531 146.050781 177.316406 147.082031 C 175.628906 147.152344 173.886719 146.789062 172.28125 148.058594 Z M 172.28125 148.058594 " fill-opacity="1" fill-rule="nonzero"/><g clip-path="url(#65544b935b)"><path fill="#000000" d="M 249.320312 220.9375 C 249.980469 220.832031 250.640625 220.707031 251.3125 220.699219 C 249.382812 220.996094 247.472656 221.472656 245.648438 222.179688 C 243.96875 222.832031 242.378906 223.722656 240.945312 224.820312 C 239.613281 225.824219 238.414062 226.996094 237.148438 228.078125 C 235.71875 229.269531 234.160156 230.292969 232.546875 231.210938 C 229.085938 233.160156 225.390625 234.652344 221.625 235.894531 C 220.003906 236.421875 218.367188 236.914062 216.714844 237.335938 C 216.46875 237.390625 216.230469 237.472656 215.980469 237.488281 C 216.921875 237.257812 217.851562 236.960938 218.78125 236.683594 C 222.722656 235.464844 226.605469 233.996094 230.265625 232.082031 C 232.851562 230.722656 235.332031 229.128906 237.503906 227.164062 C 238.023438 226.710938 238.488281 226.207031 239.015625 225.761719 C 241.917969 223.234375 245.554688 221.625 249.320312 220.9375 Z M 249.320312 220.9375 " fill-opacity="1" fill-rule="nonzero"/></g><path fill="#000000" d="M 258.46875 221.246094 C 262.652344 220.972656 266.847656 221.296875 270.992188 221.886719 C 272.074219 221.96875 273.085938 222.386719 274.105469 222.726562 C 277.300781 223.828125 280.464844 225.042969 283.527344 226.46875 C 280.910156 226.234375 278.28125 226.15625 275.652344 226.152344 C 272.511719 226.136719 269.375 226.230469 266.238281 226.386719 C 265.492188 226.425781 264.738281 226.449219 264 226.3125 C 263.410156 226.203125 262.832031 225.980469 262.375 225.589844 C 261.125 224.464844 259.941406 223.261719 258.59375 222.257812 C 258.359375 222.070312 258.070312 221.945312 257.902344 221.691406 C 257.839844 221.605469 257.828125 221.464844 257.925781 221.398438 C 258.082031 221.285156 258.28125 221.269531 258.46875 221.246094 Z M 258.46875 221.246094 " fill-opacity="1" fill-rule="nonzero"/><path fill="#000000" d="M 251.773438 222.011719 C 252.839844 221.902344 253.933594 221.953125 254.96875 222.261719 C 256.34375 222.652344 257.582031 223.449219 258.59375 224.457031 C 259.441406 225.300781 260.128906 226.289062 260.703125 227.335938 C 256.574219 227.503906 252.4375 227.65625 248.304688 227.828125 C 247.738281 226.585938 247.003906 225.402344 246.039062 224.433594 C 245.878906 224.265625 245.660156 224.132812 245.589844 223.898438 C 245.574219 223.714844 245.777344 223.636719 245.914062 223.566406 C 246.609375 223.273438 247.328125 223.027344 248.054688 222.804688 C 249.265625 222.433594 250.507812 222.136719 251.773438 222.011719 Z M 251.773438 222.011719 " fill-opacity="1" fill-rule="nonzero"/><path fill="#000000" d="M 243.683594 224.605469 C 243.957031 224.46875 244.222656 224.28125 244.539062 224.269531 C 244.777344 224.292969 244.960938 224.472656 245.144531 224.617188 C 245.675781 225.097656 246.085938 225.691406 246.476562 226.289062 C 246.695312 226.625 246.902344 226.972656 247.09375 227.328125 C 247.160156 227.457031 247.234375 227.617188 247.167969 227.757812 C 247.074219 227.90625 246.875 227.890625 246.722656 227.894531 C 245.589844 227.878906 244.457031 227.898438 243.324219 227.933594 C 242.242188 227.980469 241.152344 228.039062 240.082031 228.214844 C 239.691406 228.285156 239.296875 228.359375 238.933594 228.523438 C 239.757812 227.105469 241.046875 226.015625 242.464844 225.226562 C 242.863281 225 243.277344 224.808594 243.683594 224.605469 Z M 243.683594 224.605469 " fill-opacity="1" fill-rule="nonzero"/><path fill="#000000" d="M 269.972656 227.089844 C 272.449219 227.027344 274.925781 226.964844 277.398438 226.851562 C 280.070312 226.757812 282.746094 226.796875 285.40625 227.042969 C 287.707031 227.246094 290.007812 227.492188 292.296875 227.796875 C 293.503906 227.960938 294.710938 228.136719 295.90625 228.375 C 297.679688 228.722656 299.46875 229.074219 301.128906 229.804688 C 301.628906 230.03125 302.117188 230.28125 302.582031 230.574219 C 301.636719 230.207031 300.671875 229.898438 299.679688 229.707031 C 299.253906 229.617188 298.824219 229.578125 298.402344 229.492188 C 297.925781 229.453125 297.441406 229.496094 296.960938 229.492188 C 295.46875 229.503906 293.972656 229.550781 292.492188 229.753906 C 292.296875 229.785156 292.074219 229.820312 291.953125 229.992188 C 291.847656 230.160156 291.929688 230.371094 292.003906 230.535156 C 292.519531 231.445312 292.976562 232.382812 293.453125 233.3125 C 293.78125 233.96875 294.121094 234.617188 294.4375 235.277344 C 293.140625 233.199219 291.351562 231.441406 289.28125 230.148438 C 288.925781 229.929688 288.5625 229.722656 288.1875 229.546875 C 287.675781 229.308594 287.121094 229.179688 286.570312 229.089844 C 285.503906 228.953125 284.449219 228.722656 283.390625 228.546875 C 278.335938 227.667969 273.207031 227.152344 268.078125 227.144531 C 268.707031 227.097656 269.339844 227.109375 269.972656 227.089844 Z M 269.972656 227.089844 " fill-opacity="1" fill-rule="nonzero"/><path fill="#000000" d="M 282.59375 229.910156 C 283.394531 230.078125 284.203125 230.371094 284.816406 230.929688 C 285.171875 231.25 285.4375 231.675781 285.550781 232.140625 C 285.625 232.445312 285.585938 232.789062 285.394531 233.050781 C 285.167969 233.363281 284.804688 233.546875 284.441406 233.667969 C 284.773438 233.414062 285.113281 233.125 285.253906 232.714844 C 285.386719 232.335938 285.261719 231.914062 285.03125 231.597656 C 284.664062 231.097656 284.148438 230.738281 283.625 230.425781 C 283.292969 230.230469 282.949219 230.058594 282.59375 229.910156 Z M 282.59375 229.910156 " fill-opacity="1" fill-rule="nonzero"/><path fill="#000000" d="M 297.988281 229.90625 C 298.210938 229.878906 298.4375 229.867188 298.660156 229.890625 C 299.71875 230.105469 300.785156 230.289062 301.8125 230.628906 C 302.113281 230.726562 302.414062 230.851562 302.660156 231.054688 C 302.988281 231.316406 303.195312 231.691406 303.332031 232.082031 C 303.566406 232.78125 303.816406 233.480469 303.988281 234.199219 C 304.058594 234.507812 304.136719 234.851562 303.976562 235.144531 C 303.886719 235.332031 303.667969 235.425781 303.46875 235.414062 C 301.449219 235.257812 299.425781 235.179688 297.398438 235.144531 C 296.882812 235.125 296.347656 235.195312 295.847656 235.023438 C 295.285156 234.828125 294.875 234.363281 294.546875 233.886719 C 294.003906 233.097656 293.523438 232.265625 293.074219 231.421875 C 292.933594 231.132812 292.804688 230.808594 292.882812 230.484375 C 292.949219 230.25 293.199219 230.144531 293.421875 230.128906 C 294.941406 229.980469 296.46875 229.980469 297.988281 229.90625 Z M 297.988281 229.90625 " fill-opacity="1" fill-rule="nonzero"/><path fill="#000000" d="M 281.339844 229.957031 C 282.132812 229.894531 282.878906 230.253906 283.539062 230.648438 C 283.964844 230.910156 284.371094 231.214844 284.660156 231.625 C 284.890625 231.960938 285.011719 232.386719 284.933594 232.789062 C 284.824219 233.15625 284.492188 233.410156 284.140625 233.515625 C 283.691406 233.648438 283.207031 233.628906 282.75 233.542969 C 281.667969 233.332031 280.734375 232.542969 280.296875 231.535156 C 280.160156 231.230469 280.140625 230.851562 280.355469 230.578125 C 280.605469 230.277344 280.9375 229.992188 281.339844 229.957031 Z M 281.339844 229.957031 " fill-opacity="1" fill-rule="nonzero"/><path fill="#000000" d="M 286.5 229.980469 C 287.28125 229.84375 288.066406 230.152344 288.703125 230.59375 C 289.109375 230.875 289.46875 231.214844 289.800781 231.578125 C 290.105469 231.894531 290.300781 232.304688 290.410156 232.726562 C 290.484375 233.066406 290.488281 233.460938 290.265625 233.75 C 290.003906 234.082031 289.550781 234.191406 289.148438 234.179688 C 288.066406 234.078125 287.039062 233.488281 286.398438 232.605469 C 286.167969 232.285156 285.980469 231.9375 285.839844 231.570312 C 285.722656 231.230469 285.691406 230.847656 285.835938 230.515625 C 285.949219 230.238281 286.207031 230.03125 286.5 229.980469 Z M 286.5 229.980469 " fill-opacity="1" fill-rule="nonzero"/><path fill="#000000" d="M 288.316406 230.097656 C 289.003906 230.472656 289.695312 230.867188 290.285156 231.390625 C 290.585938 231.664062 290.871094 231.96875 291.027344 232.347656 C 291.148438 232.628906 291.164062 232.96875 291.023438 233.246094 C 290.917969 233.476562 290.726562 233.648438 290.53125 233.800781 C 290.734375 233.429688 290.785156 232.980469 290.648438 232.578125 C 290.445312 231.933594 289.972656 231.421875 289.484375 230.976562 C 289.121094 230.648438 288.714844 230.375 288.316406 230.097656 Z M 288.316406 230.097656 " fill-opacity="1" fill-rule="nonzero"/><path fill="#000000" d="M 303.53125 231.570312 C 303.550781 231.558594 303.589844 231.539062 303.613281 231.527344 C 303.804688 231.570312 303.949219 231.714844 304.089844 231.847656 C 304.488281 232.273438 304.765625 232.796875 305.003906 233.328125 C 305.160156 233.699219 305.332031 234.074219 305.386719 234.476562 C 305.402344 234.648438 305.421875 234.851562 305.292969 234.988281 C 305.210938 235.042969 305.125 234.976562 305.066406 234.925781 C 304.546875 234.410156 304.285156 233.703125 303.957031 233.0625 C 303.785156 232.691406 303.597656 232.320312 303.5 231.917969 C 303.484375 231.804688 303.449219 231.667969 303.53125 231.570312 Z M 303.53125 231.570312 " fill-opacity="1" fill-rule="nonzero"/><path fill="#000000" d="M 268.644531 232.839844 C 269.519531 232.683594 270.445312 232.6875 271.28125 233.019531 C 272.015625 233.296875 272.652344 233.800781 273.140625 234.414062 C 273.753906 235.175781 274.160156 236.085938 274.429688 237.019531 C 274.722656 238.046875 274.863281 239.117188 274.847656 240.1875 C 274.792969 241.136719 274.667969 242.085938 274.417969 243.007812 C 274.179688 243.871094 273.828125 244.714844 273.285156 245.433594 C 272.808594 246.066406 272.175781 246.585938 271.445312 246.890625 C 270.617188 247.246094 269.691406 247.328125 268.800781 247.210938 C 269.574219 247.136719 270.339844 246.886719 270.96875 246.414062 C 271.675781 245.886719 272.1875 245.132812 272.535156 244.328125 C 272.988281 243.28125 273.214844 242.148438 273.347656 241.023438 C 273.488281 239.921875 273.46875 238.804688 273.332031 237.707031 C 273.210938 236.800781 272.992188 235.898438 272.574219 235.082031 C 272.214844 234.382812 271.683594 233.753906 271 233.355469 C 270.296875 232.929688 269.457031 232.789062 268.644531 232.839844 Z M 268.644531 232.839844 " fill-opacity="1" fill-rule="nonzero"/><path fill="#000000" d="M 239.394531 235.285156 C 239.800781 235.984375 240.234375 236.679688 240.808594 237.257812 C 241.140625 237.585938 241.527344 237.871094 241.964844 238.039062 C 242.429688 238.222656 242.929688 238.269531 243.417969 238.304688 C 249.375 238.667969 255.328125 239.007812 261.28125 239.359375 C 261.644531 239.390625 262.007812 239.375 262.367188 239.4375 C 259.546875 239.375 256.726562 239.347656 253.902344 239.296875 C 250.28125 239.246094 246.65625 239.183594 243.035156 239.128906 C 242.566406 239.109375 242.089844 239.15625 241.625 239.054688 C 240.933594 238.898438 240.394531 238.320312 240.179688 237.65625 C 239.921875 236.863281 239.640625 236.078125 239.394531 235.285156 Z M 239.394531 235.285156 " fill-opacity="1" fill-rule="nonzero"/><path fill="#000000" d="M 243.664062 240.238281 C 243.875 240.214844 244.082031 240.164062 244.292969 240.167969 C 248.226562 240.320312 252.160156 240.464844 256.089844 240.582031 C 257.515625 240.617188 258.941406 240.664062 260.363281 240.667969 C 260.523438 240.671875 260.683594 240.6875 260.839844 240.707031 C 260.277344 240.695312 259.714844 240.757812 259.148438 240.765625 C 255.574219 240.910156 251.996094 240.917969 248.421875 240.902344 C 245.601562 240.890625 242.785156 240.839844 239.96875 240.773438 C 241.199219 240.585938 242.433594 240.417969 243.664062 240.238281 Z M 243.664062 240.238281 " fill-opacity="1" fill-rule="nonzero"/><g clip-path="url(#cb14b1901b)"><path fill="#000000" d="M 276.710938 240.675781 C 276.742188 240.589844 276.839844 240.605469 276.910156 240.605469 C 279.019531 240.707031 281.132812 240.796875 283.246094 240.746094 C 283.574219 241.402344 284.140625 241.941406 284.828125 242.191406 C 285.273438 242.363281 285.757812 242.433594 286.234375 242.410156 C 290.046875 242.652344 293.867188 242.851562 297.6875 242.796875 C 299.050781 242.746094 300.410156 242.664062 301.765625 242.539062 C 302.820312 242.433594 303.875 242.308594 304.910156 242.089844 C 305.355469 241.988281 305.804688 241.882812 306.226562 241.703125 C 306.445312 241.605469 306.675781 241.496094 306.8125 241.285156 C 307.03125 241.566406 307.128906 241.917969 307.226562 242.253906 C 307.320312 242.570312 307.257812 242.9375 307.039062 243.191406 C 306.722656 243.5625 306.257812 243.75 305.808594 243.902344 C 304.871094 244.199219 303.890625 244.328125 302.917969 244.445312 C 300.394531 244.710938 297.851562 244.789062 295.316406 244.875 C 290.070312 245.046875 284.8125 244.890625 279.582031 244.445312 C 278.738281 244.367188 277.898438 244.289062 277.058594 244.191406 C 276.992188 244.171875 276.882812 244.179688 276.871094 244.09375 C 276.875 242.953125 276.8125 241.8125 276.710938 240.675781 Z M 276.710938 240.675781 " fill-opacity="1" fill-rule="nonzero"/></g><path fill="#000000" d="M 273.03125 246.378906 C 274.453125 245.148438 275.183594 243.253906 275.261719 241.398438 C 275.390625 241.910156 275.382812 242.445312 275.417969 242.96875 C 275.433594 243.667969 275.457031 244.367188 275.414062 245.0625 C 275.445312 245.207031 275.625 245.246094 275.746094 245.273438 C 276.351562 245.367188 276.96875 245.355469 277.578125 245.40625 C 277.40625 245.691406 277.144531 245.914062 276.914062 246.148438 C 276.550781 246.496094 276.171875 246.832031 275.785156 247.152344 C 275.339844 247.515625 274.734375 247.488281 274.195312 247.558594 C 273.039062 247.640625 271.875 247.726562 270.714844 247.621094 C 271.5625 247.371094 272.363281 246.960938 273.03125 246.378906 Z M 273.03125 246.378906 " fill-opacity="1" fill-rule="nonzero"/><path fill="#000000" d="M 230.84375 242.355469 C 231.914062 242.441406 232.984375 242.578125 234.054688 242.675781 C 239 243.179688 243.953125 243.65625 248.90625 244.089844 C 252.222656 244.375 255.535156 244.648438 258.859375 244.84375 C 259.671875 244.875 260.488281 244.9375 261.300781 244.945312 C 259.984375 244.964844 258.667969 244.925781 257.355469 244.917969 C 254.019531 244.890625 250.6875 244.863281 247.351562 244.847656 C 247.113281 244.84375 246.875 244.855469 246.636719 244.839844 C 241.371094 244.015625 236.109375 243.175781 230.84375 242.355469 Z M 230.84375 242.355469 " fill-opacity="1" fill-rule="nonzero"/><g clip-path="url(#68cb70d3aa)"><path fill="#000000" d="M 298.175781 245.671875 C 299.207031 245.640625 300.234375 245.59375 301.265625 245.507812 C 301.085938 245.832031 300.785156 246.058594 300.511719 246.292969 C 299.230469 247.296875 297.667969 247.972656 296.039062 248.066406 C 295 248.128906 293.949219 247.921875 293.007812 247.472656 C 292.101562 247.050781 291.296875 246.421875 290.601562 245.699219 C 293.125 245.730469 295.652344 245.738281 298.175781 245.671875 Z M 298.175781 245.671875 " fill-opacity="1" fill-rule="nonzero"/></g><g clip-path="url(#eb3ccf5836)"><path fill="#000000" d="M 338.820312 213.113281 C 336.765625 213.113281 335.097656 214.796875 335.097656 216.878906 C 335.097656 218.957031 336.765625 220.644531 338.820312 220.644531 C 340.878906 220.644531 342.542969 218.957031 342.542969 216.878906 C 342.542969 214.796875 340.878906 213.113281 338.820312 213.113281 Z M 334.933594 221.398438 C 334.113281 221.398438 333.335938 221.808594 332.886719 222.503906 L 327.117188 231.425781 C 326.871094 231.820312 326.886719 232.273438 327.070312 232.671875 L 325.089844 235.566406 L 322.648438 233.847656 C 321.683594 233.171875 320.34375 233.414062 319.667969 234.390625 L 315.457031 240.488281 C 315.058594 241.070312 314.914062 241.789062 315.039062 242.488281 C 315.152344 243.136719 315.503906 243.683594 316.015625 244.089844 C 316.566406 242.707031 317.898438 241.734375 319.460938 241.734375 C 320.441406 241.734375 321.328125 242.117188 321.996094 242.746094 L 328.347656 233.449219 C 328.746094 233.417969 329.117188 233.203125 329.351562 232.835938 L 333.839844 226.269531 L 332.980469 230.953125 C 332.738281 232.269531 332.964844 233.609375 333.632812 234.765625 L 340.519531 247.007812 C 340.789062 247.472656 341.269531 247.761719 341.800781 247.761719 C 342.878906 247.761719 343.605469 246.640625 343.171875 245.640625 L 338.03125 233.613281 L 339.496094 225.703125 C 339.914062 223.464844 338.214844 221.398438 335.957031 221.398438 Z M 340.125 226.410156 L 339.355469 230.484375 L 343.523438 233.917969 C 344.039062 234.347656 344.8125 234.273438 345.246094 233.753906 C 345.679688 233.230469 345.597656 232.453125 345.082031 232.011719 L 340.824219 228.386719 Z M 332.515625 234.789062 L 331.234375 239.261719 L 327.140625 245.59375 C 326.75 246.195312 326.867188 247.007812 327.417969 247.453125 C 328.027344 247.945312 328.90625 247.824219 329.375 247.195312 L 333.726562 241.335938 L 334.820312 238.863281 Z M 319.460938 243.242188 C 318.230469 243.242188 317.226562 244.253906 317.226562 245.5 C 317.226562 246.746094 318.230469 247.761719 319.460938 247.761719 C 320.691406 247.761719 321.695312 246.746094 321.695312 245.5 C 321.695312 244.253906 320.691406 243.242188 319.460938 243.242188 Z M 319.460938 243.242188 " fill-opacity="1" fill-rule="nonzero"/></g><g fill="#ff0000" fill-opacity="1"><g transform="translate(119.583105, 215.455223)"><g><path d="M 0 -2.984375 L 4.03125 -2.984375 L 16.296875 -23.203125 L 20.3125 -23.203125 L 32.359375 -2.984375 L 37.203125 -2.984375 L 37.203125 0 L 22.84375 0 L 22.84375 -2.984375 L 27.359375 -2.984375 L 24.65625 -7.734375 L 11.59375 -7.734375 L 8.96875 -2.984375 L 13.265625 -2.984375 L 13.265625 0 L 0 0 Z M 23.28125 -22.25 L 34.078125 -4.09375 L 33.21875 -4.09375 L 22.421875 -22.25 Z M 23.3125 -10.0625 L 18.046875 -19.328125 L 12.890625 -10.0625 Z M 18.375 -17.203125 L 18.828125 -16.390625 L 15.828125 -11.1875 L 14.90625 -11.1875 Z M 12.3125 -6.4375 L 24.484375 -6.4375 L 24.828125 -5.71875 L 12.875 -5.71875 L 12 -4.09375 L 11.046875 -4.09375 Z M 38.53125 1.3125 L 38.53125 -1.953125 L 39.3125 -1.953125 L 39.3125 2.015625 L 23.65625 2.015625 L 23.65625 1.3125 Z M 14.609375 1.3125 L 14.609375 -1.953125 L 15.359375 -1.953125 L 15.359375 2.015625 L 0.8125 2.015625 L 0.8125 1.3125 Z M 14.609375 1.3125 "/></g></g></g><g fill="#ff0000" fill-opacity="1"><g transform="translate(158.878468, 215.455223)"><g><path d="M 2.796875 -2.984375 L 7.84375 -2.984375 L 7.84375 -20.21875 L 2.796875 -20.21875 L 2.796875 -23.203125 L 16.734375 -23.203125 C 18.390625 -23.203125 19.84375 -23.160156 21.09375 -23.078125 C 22.351562 -23.003906 23.492188 -22.828125 24.515625 -22.546875 C 27.179688 -21.816406 29.175781 -20.554688 30.5 -18.765625 C 31.832031 -16.972656 32.5 -14.585938 32.5 -11.609375 C 32.5 -10.242188 32.34375 -8.976562 32.03125 -7.8125 C 31.71875 -6.65625 31.234375 -5.613281 30.578125 -4.6875 C 29.921875 -3.757812 29.097656 -2.96875 28.109375 -2.3125 C 27.128906 -1.65625 25.96875 -1.144531 24.625 -0.78125 C 23.613281 -0.507812 22.472656 -0.3125 21.203125 -0.1875 C 19.929688 -0.0625 18.503906 0 16.921875 0 L 2.796875 0 Z M 16.328125 1.3125 C 17.191406 1.3125 18.046875 1.285156 18.890625 1.234375 C 19.742188 1.191406 20.546875 1.132812 21.296875 1.0625 C 22.054688 0.988281 22.753906 0.898438 23.390625 0.796875 C 24.035156 0.691406 24.59375 0.578125 25.0625 0.453125 C 26.40625 0.0976562 27.617188 -0.429688 28.703125 -1.140625 C 29.796875 -1.859375 30.722656 -2.726562 31.484375 -3.75 C 32.242188 -4.78125 32.828125 -5.957031 33.234375 -7.28125 C 33.640625 -8.601562 33.84375 -10.046875 33.84375 -11.609375 C 33.84375 -12.765625 33.738281 -13.8125 33.53125 -14.75 C 33.320312 -15.6875 33.007812 -16.539062 32.59375 -17.3125 C 32.1875 -18.09375 31.679688 -18.804688 31.078125 -19.453125 C 30.472656 -20.097656 29.78125 -20.707031 29 -21.28125 C 29.90625 -20.820312 30.707031 -20.285156 31.40625 -19.671875 C 32.101562 -19.066406 32.6875 -18.367188 33.15625 -17.578125 C 33.625 -16.785156 33.984375 -15.894531 34.234375 -14.90625 C 34.484375 -13.914062 34.609375 -12.816406 34.609375 -11.609375 C 34.609375 -10.003906 34.398438 -8.507812 33.984375 -7.125 C 33.566406 -5.738281 32.960938 -4.492188 32.171875 -3.390625 C 31.378906 -2.296875 30.394531 -1.363281 29.21875 -0.59375 C 28.050781 0.175781 26.71875 0.753906 25.21875 1.140625 C 24.164062 1.398438 22.90625 1.609375 21.4375 1.765625 C 19.96875 1.929688 18.265625 2.015625 16.328125 2.015625 L 3.984375 2.015625 L 3.984375 1.3125 Z M 17.8125 -2.984375 C 19.65625 -2.984375 21.207031 -3.144531 22.46875 -3.46875 C 23.738281 -3.789062 24.765625 -4.285156 25.546875 -4.953125 C 26.335938 -5.628906 26.90625 -6.488281 27.25 -7.53125 C 27.59375 -8.570312 27.765625 -9.820312 27.765625 -11.28125 L 27.765625 -11.96875 C 27.765625 -13.382812 27.585938 -14.609375 27.234375 -15.640625 C 26.878906 -16.671875 26.304688 -17.523438 25.515625 -18.203125 C 24.722656 -18.890625 23.679688 -19.394531 22.390625 -19.71875 C 21.109375 -20.050781 19.53125 -20.21875 17.65625 -20.21875 L 12.046875 -20.21875 L 12.046875 -2.984375 Z M 13.34375 -18.921875 L 17.296875 -18.921875 C 18.535156 -18.921875 19.582031 -18.875 20.4375 -18.78125 C 21.300781 -18.6875 22.035156 -18.539062 22.640625 -18.34375 C 23.242188 -18.15625 23.765625 -17.90625 24.203125 -17.59375 C 24.640625 -17.28125 25.070312 -16.90625 25.5 -16.46875 C 25.039062 -16.757812 24.554688 -17.015625 24.046875 -17.234375 C 23.546875 -17.453125 22.976562 -17.628906 22.34375 -17.765625 C 21.707031 -17.910156 20.976562 -18.019531 20.15625 -18.09375 C 19.34375 -18.164062 18.390625 -18.203125 17.296875 -18.203125 L 14.09375 -18.203125 L 14.09375 -4.09375 L 13.34375 -4.09375 Z M 3.921875 -18.921875 L 7.0625 -18.921875 L 7.0625 -18.203125 L 3.921875 -18.203125 Z M 3.921875 -18.921875 "/></g></g></g><g fill="#ff0000" fill-opacity="1"><g transform="translate(195.490791, 215.455223)"><g><path d="M 0 -2.984375 L 4.03125 -2.984375 L 16.296875 -23.203125 L 20.3125 -23.203125 L 32.359375 -2.984375 L 37.203125 -2.984375 L 37.203125 0 L 22.84375 0 L 22.84375 -2.984375 L 27.359375 -2.984375 L 24.65625 -7.734375 L 11.59375 -7.734375 L 8.96875 -2.984375 L 13.265625 -2.984375 L 13.265625 0 L 0 0 Z M 23.28125 -22.25 L 34.078125 -4.09375 L 33.21875 -4.09375 L 22.421875 -22.25 Z M 23.3125 -10.0625 L 18.046875 -19.328125 L 12.890625 -10.0625 Z M 18.375 -17.203125 L 18.828125 -16.390625 L 15.828125 -11.1875 L 14.90625 -11.1875 Z M 12.3125 -6.4375 L 24.484375 -6.4375 L 24.828125 -5.71875 L 12.875 -5.71875 L 12 -4.09375 L 11.046875 -4.09375 Z M 38.53125 1.3125 L 38.53125 -1.953125 L 39.3125 -1.953125 L 39.3125 2.015625 L 23.65625 2.015625 L 23.65625 1.3125 Z M 14.609375 1.3125 L 14.609375 -1.953125 L 15.359375 -1.953125 L 15.359375 2.015625 L 0.8125 2.015625 L 0.8125 1.3125 Z M 14.609375 1.3125 "/></g></g></g><g fill="#ff0000" fill-opacity="1"><g transform="translate(234.786154, 215.455223)"><g><path d="M 3.359375 -6.703125 L 7.171875 -6.703125 C 8.828125 -5.210938 10.59375 -4.125 12.46875 -3.4375 C 14.34375 -2.75 16.304688 -2.40625 18.359375 -2.40625 C 19.253906 -2.40625 20.070312 -2.488281 20.8125 -2.65625 C 21.5625 -2.832031 22.207031 -3.070312 22.75 -3.375 C 23.300781 -3.6875 23.726562 -4.046875 24.03125 -4.453125 C 24.332031 -4.859375 24.484375 -5.300781 24.484375 -5.78125 C 24.484375 -6.320312 24.3125 -6.820312 23.96875 -7.28125 C 23.625 -7.75 23.066406 -8.164062 22.296875 -8.53125 C 21.535156 -8.90625 20.554688 -9.226562 19.359375 -9.5 C 18.160156 -9.78125 16.710938 -10.003906 15.015625 -10.171875 C 13.054688 -10.367188 11.382812 -10.691406 10 -11.140625 C 8.625 -11.597656 7.5 -12.148438 6.625 -12.796875 C 5.75 -13.453125 5.109375 -14.175781 4.703125 -14.96875 C 4.296875 -15.757812 4.09375 -16.597656 4.09375 -17.484375 C 4.09375 -18.304688 4.328125 -19.097656 4.796875 -19.859375 C 5.273438 -20.617188 5.976562 -21.296875 6.90625 -21.890625 C 7.84375 -22.484375 9.003906 -22.957031 10.390625 -23.3125 C 11.785156 -23.675781 13.40625 -23.859375 15.25 -23.859375 C 16.3125 -23.859375 17.285156 -23.773438 18.171875 -23.609375 C 19.066406 -23.441406 19.890625 -23.210938 20.640625 -22.921875 C 21.390625 -22.640625 22.082031 -22.300781 22.71875 -21.90625 C 23.351562 -21.519531 23.953125 -21.101562 24.515625 -20.65625 L 24.515625 -23.203125 L 28.703125 -23.203125 L 28.703125 -16.5 L 24.515625 -16.5 C 24.140625 -17.113281 23.648438 -17.6875 23.046875 -18.21875 C 22.453125 -18.757812 21.765625 -19.222656 20.984375 -19.609375 C 20.210938 -20.003906 19.367188 -20.3125 18.453125 -20.53125 C 17.535156 -20.757812 16.570312 -20.875 15.5625 -20.875 C 14.507812 -20.875 13.582031 -20.773438 12.78125 -20.578125 C 11.976562 -20.390625 11.304688 -20.144531 10.765625 -19.84375 C 10.222656 -19.539062 9.816406 -19.203125 9.546875 -18.828125 C 9.273438 -18.453125 9.140625 -18.082031 9.140625 -17.71875 C 9.140625 -17.257812 9.257812 -16.820312 9.5 -16.40625 C 9.738281 -15.988281 10.164062 -15.601562 10.78125 -15.25 C 11.394531 -14.894531 12.226562 -14.578125 13.28125 -14.296875 C 14.34375 -14.023438 15.6875 -13.789062 17.3125 -13.59375 C 19.601562 -13.300781 21.515625 -12.9375 23.046875 -12.5 C 24.585938 -12.070312 25.820312 -11.550781 26.75 -10.9375 C 27.6875 -10.320312 28.351562 -9.601562 28.75 -8.78125 C 29.15625 -7.96875 29.359375 -7.050781 29.359375 -6.03125 C 29.359375 -5.269531 29.148438 -4.492188 28.734375 -3.703125 C 28.316406 -2.921875 27.679688 -2.210938 26.828125 -1.578125 C 25.972656 -0.953125 24.894531 -0.4375 23.59375 -0.03125 C 22.289062 0.363281 20.757812 0.5625 19 0.5625 C 17.882812 0.5625 16.820312 0.488281 15.8125 0.34375 C 14.800781 0.195312 13.828125 -0.0078125 12.890625 -0.28125 C 11.953125 -0.5625 11.039062 -0.90625 10.15625 -1.3125 C 9.269531 -1.726562 8.398438 -2.210938 7.546875 -2.765625 L 7.546875 0 L 3.359375 0 Z M 25.625 -15.1875 L 30.046875 -15.1875 L 30.046875 -22.25 L 30.828125 -22.25 L 30.828125 -14.484375 L 25.625 -14.484375 Z M 10.6875 -17.84375 C 10.6875 -18.101562 10.816406 -18.335938 11.078125 -18.546875 C 11.347656 -18.753906 11.71875 -18.929688 12.1875 -19.078125 C 12.65625 -19.234375 13.207031 -19.351562 13.84375 -19.4375 C 14.488281 -19.53125 15.1875 -19.578125 15.9375 -19.578125 C 17.0625 -19.578125 18.101562 -19.398438 19.0625 -19.046875 C 20.03125 -18.691406 20.832031 -18.234375 21.46875 -17.671875 C 21.125 -17.816406 20.734375 -17.960938 20.296875 -18.109375 C 19.859375 -18.253906 19.398438 -18.382812 18.921875 -18.5 C 18.441406 -18.613281 17.953125 -18.703125 17.453125 -18.765625 C 16.953125 -18.835938 16.457031 -18.875 15.96875 -18.875 C 14.613281 -18.875 13.5 -18.765625 12.625 -18.546875 C 11.75 -18.335938 11.101562 -18.101562 10.6875 -17.84375 Z M 4.640625 -13.015625 C 5.066406 -12.460938 5.5625 -11.96875 6.125 -11.53125 C 6.6875 -11.101562 7.367188 -10.71875 8.171875 -10.375 C 8.972656 -10.039062 9.910156 -9.75 10.984375 -9.5 C 12.054688 -9.257812 13.316406 -9.054688 14.765625 -8.890625 C 16.171875 -8.722656 17.375 -8.550781 18.375 -8.375 C 19.375 -8.207031 20.203125 -8.019531 20.859375 -7.8125 C 21.515625 -7.613281 22.019531 -7.382812 22.375 -7.125 C 22.726562 -6.863281 22.96875 -6.554688 23.09375 -6.203125 C 22.726562 -6.421875 22.34375 -6.613281 21.9375 -6.78125 C 21.539062 -6.945312 21.023438 -7.109375 20.390625 -7.265625 C 19.753906 -7.421875 18.957031 -7.570312 18 -7.71875 C 17.039062 -7.863281 15.835938 -8.023438 14.390625 -8.203125 C 12.859375 -8.390625 11.503906 -8.644531 10.328125 -8.96875 C 9.160156 -9.289062 8.164062 -9.660156 7.34375 -10.078125 C 6.53125 -10.492188 5.894531 -10.953125 5.4375 -11.453125 C 4.988281 -11.953125 4.722656 -12.472656 4.640625 -13.015625 Z M 8.890625 1.3125 L 8.890625 -0.546875 C 10.378906 0.242188 11.9375 0.84375 13.5625 1.25 C 15.195312 1.65625 17 1.859375 18.96875 1.859375 C 20.476562 1.859375 21.929688 1.695312 23.328125 1.375 C 24.734375 1.050781 25.984375 0.566406 27.078125 -0.078125 C 28.171875 -0.722656 29.046875 -1.535156 29.703125 -2.515625 C 30.367188 -3.492188 30.703125 -4.644531 30.703125 -5.96875 C 30.703125 -6.757812 30.613281 -7.476562 30.4375 -8.125 C 30.269531 -8.78125 29.941406 -9.441406 29.453125 -10.109375 C 29.742188 -9.890625 30.007812 -9.628906 30.25 -9.328125 C 30.5 -9.023438 30.707031 -8.6875 30.875 -8.3125 C 31.050781 -7.945312 31.1875 -7.5625 31.28125 -7.15625 C 31.382812 -6.757812 31.4375 -6.363281 31.4375 -5.96875 C 31.4375 -4.601562 31.109375 -3.390625 30.453125 -2.328125 C 29.804688 -1.273438 28.914062 -0.382812 27.78125 0.34375 C 26.65625 1.070312 25.332031 1.625 23.8125 2 C 22.300781 2.382812 20.679688 2.578125 18.953125 2.578125 C 17.015625 2.578125 15.285156 2.40625 13.765625 2.0625 C 12.242188 1.726562 10.878906 1.265625 9.671875 0.671875 L 9.671875 2.015625 L 4.46875 2.015625 L 4.46875 1.3125 Z M 8.890625 1.3125 "/></g></g></g><g fill="#ff0000" fill-opacity="1"><g transform="translate(268.622275, 215.455223)"><g><path d="M 2.796875 -2.984375 L 7.828125 -2.984375 L 7.828125 -20.21875 L 2.796875 -20.21875 L 2.796875 -23.203125 L 17.046875 -23.203125 L 17.046875 -20.21875 L 12.0625 -20.21875 L 12.0625 -12.875 L 28.703125 -12.875 L 28.703125 -20.21875 L 23.703125 -20.21875 L 23.703125 -23.203125 L 37.96875 -23.203125 L 37.96875 -20.21875 L 32.9375 -20.21875 L 32.9375 -2.984375 L 37.96875 -2.984375 L 37.96875 0 L 23.703125 0 L 23.703125 -2.984375 L 28.703125 -2.984375 L 28.703125 -10.546875 L 12.0625 -10.546875 L 12.0625 -2.984375 L 17.046875 -2.984375 L 17.046875 0 L 2.796875 0 Z M 34.28125 -18.921875 L 39.296875 -18.921875 L 39.296875 -22.25 L 40.03125 -22.25 L 40.03125 -18.203125 L 35.015625 -18.203125 L 35.015625 -4.09375 L 34.28125 -4.09375 Z M 13.40625 -18.921875 L 18.375 -18.921875 L 18.375 -22.25 L 19.125 -22.25 L 19.125 -18.203125 L 14.140625 -18.203125 L 14.140625 -14 L 13.40625 -14 Z M 24.828125 -18.921875 L 27.921875 -18.921875 L 27.921875 -18.203125 L 24.828125 -18.203125 Z M 3.921875 -18.921875 L 7.046875 -18.203125 L 3.921875 -18.203125 Z M 13.40625 -9.25 L 27.953125 -9.25 L 27.953125 -8.53125 L 14.140625 -8.53125 L 14.140625 -4.09375 L 13.40625 -4.09375 Z M 39.3125 1.3125 L 39.3125 -1.9375 L 40.015625 -1.9375 L 40.015625 2.015625 L 24.828125 2.015625 L 24.828125 1.3125 Z M 18.390625 1.3125 L 18.390625 -1.9375 L 19.140625 -1.9375 L 19.140625 2.015625 L 3.921875 2.015625 L 3.921875 1.3125 Z M 18.390625 1.3125 "/></g></g></g><g fill="#ff0000" fill-opacity="1"><g transform="translate(310.880161, 215.455223)"><g><path d="M 2.609375 -2.984375 L 7.828125 -2.984375 L 7.828125 -20.21875 L 2.796875 -20.21875 L 2.796875 -23.203125 L 17.234375 -23.203125 L 17.234375 -20.21875 L 12.0625 -20.21875 L 12.0625 -2.984375 L 17.046875 -2.984375 L 17.046875 0 L 2.609375 0 Z M 13.40625 -18.921875 L 18.5625 -18.921875 L 18.5625 -22.265625 L 19.3125 -22.265625 L 19.3125 -18.203125 L 14.140625 -18.203125 L 14.140625 -4.09375 L 13.40625 -4.09375 Z M 3.921875 -18.921875 L 7.046875 -18.921875 L 7.046875 -18.203125 L 3.921875 -18.203125 Z M 18.390625 1.3125 L 18.390625 -1.9375 L 19.140625 -1.9375 L 19.140625 2.015625 L 3.734375 2.015625 L 3.734375 1.3125 Z M 18.390625 1.3125 "/></g></g></g><g fill="#ff0000" fill-opacity="1"><g transform="translate(332.269955, 215.455223)"><g><path d="M 5.375 -20.21875 L 0.9375 -20.21875 L 0.9375 -23.203125 L 15.8125 -23.203125 L 15.8125 -20.21875 L 10.421875 -20.21875 L 19.234375 -3.890625 L 28.140625 -20.21875 L 22.8125 -20.21875 L 22.8125 -23.203125 L 36.828125 -23.203125 L 36.828125 -20.21875 L 32.640625 -20.21875 L 20.984375 0 L 16.96875 0 Z M 21.875 1.3125 L 33.34375 -18.921875 L 38.171875 -18.921875 L 38.171875 -22.25 L 38.921875 -22.25 L 38.921875 -18.203125 L 33.8125 -18.203125 L 22.34375 2.015625 L 18.75 2.015625 L 18.359375 1.3125 Z M 12.6875 -18.921875 L 17.140625 -18.921875 L 17.140625 -22.25 L 17.890625 -22.25 L 17.890625 -18.203125 L 13.921875 -18.203125 L 19.875 -7.15625 L 19.421875 -6.390625 Z M 24.03125 -18.921875 L 26.40625 -18.921875 L 26.015625 -18.203125 L 24.03125 -18.203125 Z M 2.140625 -18.921875 L 4.796875 -18.203125 L 5.203125 -18.203125 L 2.140625 -18.203125 Z M 2.140625 -18.921875 "/></g></g></g><g fill="#004aad" fill-opacity="1"><g transform="translate(67.625889, 240.655699)"><g><path d="M 2.15625 -2.171875 L 5.703125 -2.171875 L 5.703125 -14.75 L 1.953125 -14.75 L 1.953125 -16.921875 L 13.078125 -16.921875 C 14.117188 -16.921875 15.054688 -16.898438 15.890625 -16.859375 C 16.734375 -16.828125 17.5 -16.75 18.1875 -16.625 C 18.976562 -16.46875 19.648438 -16.253906 20.203125 -15.984375 C 20.765625 -15.710938 21.222656 -15.382812 21.578125 -15 C 21.929688 -14.613281 22.1875 -14.175781 22.34375 -13.6875 C 22.5 -13.207031 22.578125 -12.679688 22.578125 -12.109375 C 22.578125 -11.066406 22.25 -10.160156 21.59375 -9.390625 C 20.945312 -8.617188 19.96875 -8.03125 18.65625 -7.625 C 18.488281 -7.570312 18.316406 -7.523438 18.140625 -7.484375 C 17.960938 -7.441406 17.785156 -7.394531 17.609375 -7.34375 C 18.085938 -7.09375 18.566406 -6.769531 19.046875 -6.375 C 19.523438 -5.988281 19.96875 -5.566406 20.375 -5.109375 C 20.789062 -4.648438 21.148438 -4.164062 21.453125 -3.65625 C 21.753906 -3.15625 21.96875 -2.660156 22.09375 -2.171875 L 24.84375 -2.171875 L 24.84375 0 L 15.25 0 L 15.25 -2.171875 L 18.484375 -2.171875 C 18.328125 -2.660156 18.082031 -3.160156 17.75 -3.671875 C 17.425781 -4.191406 17.035156 -4.675781 16.578125 -5.125 C 16.117188 -5.582031 15.59375 -5.976562 15 -6.3125 C 14.414062 -6.65625 13.796875 -6.882812 13.140625 -7 L 8.765625 -7 L 8.765625 -2.171875 L 12.078125 -2.171875 L 12.078125 0 L 2.15625 0 Z M 19.6875 -7.109375 C 20.289062 -7.285156 20.832031 -7.535156 21.3125 -7.859375 C 21.800781 -8.191406 22.207031 -8.570312 22.53125 -9 C 22.863281 -9.4375 23.117188 -9.914062 23.296875 -10.4375 C 23.472656 -10.96875 23.5625 -11.519531 23.5625 -12.09375 C 23.5625 -12.488281 23.519531 -12.875 23.4375 -13.25 C 23.351562 -13.625 23.210938 -13.976562 23.015625 -14.3125 C 22.816406 -14.65625 22.550781 -14.984375 22.21875 -15.296875 C 21.882812 -15.617188 21.46875 -15.925781 20.96875 -16.21875 C 21.53125 -16.007812 22.007812 -15.757812 22.40625 -15.46875 C 22.8125 -15.175781 23.144531 -14.847656 23.40625 -14.484375 C 23.664062 -14.117188 23.851562 -13.734375 23.96875 -13.328125 C 24.09375 -12.929688 24.15625 -12.519531 24.15625 -12.09375 C 24.15625 -11.570312 24.082031 -11.0625 23.9375 -10.5625 C 23.800781 -10.0625 23.585938 -9.585938 23.296875 -9.140625 C 23.015625 -8.691406 22.648438 -8.28125 22.203125 -7.90625 C 21.765625 -7.53125 21.25 -7.210938 20.65625 -6.953125 C 20.925781 -6.734375 21.191406 -6.460938 21.453125 -6.140625 C 21.722656 -5.828125 21.972656 -5.484375 22.203125 -5.109375 C 22.441406 -4.742188 22.65625 -4.378906 22.84375 -4.015625 C 23.039062 -3.648438 23.191406 -3.3125 23.296875 -3 L 22.671875 -3 C 22.523438 -3.351562 22.347656 -3.726562 22.140625 -4.125 C 21.941406 -4.519531 21.710938 -4.898438 21.453125 -5.265625 C 21.203125 -5.640625 20.925781 -5.988281 20.625 -6.3125 C 20.320312 -6.632812 20.007812 -6.898438 19.6875 -7.109375 Z M 13.671875 -9.171875 C 14.753906 -9.171875 15.65625 -9.226562 16.375 -9.34375 C 17.09375 -9.46875 17.664062 -9.648438 18.09375 -9.890625 C 18.519531 -10.140625 18.820312 -10.4375 19 -10.78125 C 19.175781 -11.132812 19.265625 -11.539062 19.265625 -12 C 19.265625 -12.5625 19.066406 -13.066406 18.671875 -13.515625 C 18.273438 -13.960938 17.640625 -14.296875 16.765625 -14.515625 C 16.359375 -14.609375 15.894531 -14.671875 15.375 -14.703125 C 14.863281 -14.734375 14.296875 -14.75 13.671875 -14.75 L 8.765625 -14.75 L 8.765625 -9.171875 Z M 9.75 -13.796875 L 13.671875 -13.796875 C 14.410156 -13.796875 15.03125 -13.78125 15.53125 -13.75 C 16.03125 -13.71875 16.453125 -13.660156 16.796875 -13.578125 C 17.140625 -13.492188 17.421875 -13.382812 17.640625 -13.25 C 17.867188 -13.125 18.082031 -12.960938 18.28125 -12.765625 C 18.09375 -12.835938 17.875 -12.90625 17.625 -12.96875 C 17.375 -13.039062 17.066406 -13.097656 16.703125 -13.140625 C 16.347656 -13.179688 15.921875 -13.210938 15.421875 -13.234375 C 14.929688 -13.265625 14.347656 -13.28125 13.671875 -13.28125 L 10.28125 -13.28125 L 10.28125 -9.984375 L 9.75 -9.984375 Z M 2.6875 -13.796875 L 4.84375 -13.796875 L 4.84375 -13.28125 L 2.6875 -13.28125 Z M 9.75 -6.046875 L 11.390625 -6.046875 C 12.253906 -6.046875 13.023438 -5.972656 13.703125 -5.828125 C 14.378906 -5.691406 14.867188 -5.453125 15.171875 -5.109375 C 14.921875 -5.179688 14.671875 -5.242188 14.421875 -5.296875 C 14.171875 -5.347656 13.890625 -5.390625 13.578125 -5.421875 C 13.265625 -5.453125 12.898438 -5.476562 12.484375 -5.5 C 12.078125 -5.519531 11.582031 -5.53125 11 -5.53125 L 10.28125 -5.53125 L 10.28125 -2.984375 L 9.75 -2.984375 Z M 25.8125 0.953125 L 25.8125 -1.40625 L 26.359375 -1.40625 L 26.359375 1.46875 L 15.828125 1.46875 L 15.828125 0.953125 Z M 13.078125 0.953125 L 13.078125 -1.40625 L 13.625 -1.40625 L 13.625 1.46875 L 3.03125 1.46875 L 3.03125 0.953125 Z M 13.078125 0.953125 "/></g></g></g><g fill="#004aad" fill-opacity="1"><g transform="translate(94.587319, 240.655699)"><g><path d="M 0 -2.171875 L 2.9375 -2.171875 L 11.875 -16.921875 L 14.8125 -16.921875 L 23.59375 -2.171875 L 27.125 -2.171875 L 27.125 0 L 16.65625 0 L 16.65625 -2.171875 L 19.953125 -2.171875 L 17.984375 -5.640625 L 8.453125 -5.640625 L 6.53125 -2.171875 L 9.671875 -2.171875 L 9.671875 0 L 0 0 Z M 16.96875 -16.21875 L 24.84375 -2.984375 L 24.21875 -2.984375 L 16.34375 -16.21875 Z M 17 -7.34375 L 13.15625 -14.09375 L 9.40625 -7.34375 Z M 13.390625 -12.546875 L 13.71875 -11.9375 L 11.53125 -8.15625 L 10.875 -8.15625 Z M 8.984375 -4.6875 L 17.859375 -4.6875 L 18.09375 -4.171875 L 9.390625 -4.171875 L 8.75 -2.984375 L 8.0625 -2.984375 Z M 28.09375 0.953125 L 28.09375 -1.421875 L 28.65625 -1.421875 L 28.65625 1.46875 L 17.25 1.46875 L 17.25 0.953125 Z M 10.65625 0.953125 L 10.65625 -1.421875 L 11.203125 -1.421875 L 11.203125 1.46875 L 0.59375 1.46875 L 0.59375 0.953125 Z M 10.65625 0.953125 "/></g></g></g><g fill="#004aad" fill-opacity="1"><g transform="translate(123.232989, 240.655699)"><g><path d="M 3.90625 -14.75 L 0.671875 -14.75 L 0.671875 -16.921875 L 11.515625 -16.921875 L 11.515625 -14.75 L 7.59375 -14.75 L 14.015625 -2.84375 L 20.515625 -14.75 L 16.625 -14.75 L 16.625 -16.921875 L 26.84375 -16.921875 L 26.84375 -14.75 L 23.796875 -14.75 L 15.296875 0 L 12.359375 0 Z M 15.953125 0.953125 L 24.3125 -13.796875 L 27.828125 -13.796875 L 27.828125 -16.21875 L 28.375 -16.21875 L 28.375 -13.28125 L 24.65625 -13.28125 L 16.296875 1.46875 L 13.671875 1.46875 L 13.390625 0.953125 Z M 9.25 -13.796875 L 12.5 -13.796875 L 12.5 -16.21875 L 13.046875 -16.21875 L 13.046875 -13.28125 L 10.15625 -13.28125 L 14.484375 -5.21875 L 14.15625 -4.65625 Z M 17.515625 -13.796875 L 19.25 -13.796875 L 18.96875 -13.28125 L 17.515625 -13.28125 Z M 1.5625 -13.796875 L 3.484375 -13.28125 L 3.796875 -13.28125 L 1.5625 -13.28125 Z M 1.5625 -13.796875 "/></g></g></g><g fill="#004aad" fill-opacity="1"><g transform="translate(151.511923, 240.655699)"><g><path d="M 2.03125 -2.171875 L 5.703125 -2.171875 L 5.703125 -14.75 L 2.03125 -14.75 L 2.03125 -16.921875 L 22.25 -16.921875 L 22.25 -11.625 L 19.1875 -11.625 L 19.1875 -14.75 L 8.90625 -14.75 L 8.90625 -9.390625 L 15.71875 -9.390625 L 15.71875 -7.6875 L 8.90625 -7.6875 L 8.90625 -2.171875 L 19.1875 -2.171875 L 19.1875 -5.296875 L 22.25 -5.296875 L 22.25 0 L 2.03125 0 Z M 20 -10.671875 L 23.21875 -10.671875 L 23.21875 -16.234375 L 23.765625 -16.234375 L 23.765625 -10.15625 L 20 -10.15625 Z M 9.875 -13.796875 L 18.609375 -13.796875 L 18.609375 -13.28125 L 10.421875 -13.28125 L 10.421875 -10.203125 L 9.875 -10.203125 Z M 2.859375 -13.796875 L 5.140625 -13.796875 L 5.140625 -13.28125 L 2.859375 -13.28125 Z M 9.875 -6.734375 L 16.6875 -6.734375 L 16.6875 -8.703125 L 17.234375 -8.703125 L 17.234375 -6.21875 L 10.421875 -6.21875 L 10.421875 -2.984375 L 9.875 -2.984375 Z M 23.21875 0.953125 L 23.21875 -4.53125 L 23.765625 -4.53125 L 23.765625 1.46875 L 2.859375 1.46875 L 2.859375 0.953125 Z M 23.21875 0.953125 "/></g></g></g><g fill="#004aad" fill-opacity="1"><g transform="translate(177.821389, 240.655699)"><g><path d="M 2.171875 -2.171875 L 5.703125 -2.171875 L 5.703125 -14.75 L 1.9375 -14.75 L 1.9375 -16.921875 L 12.59375 -16.921875 L 12.59375 -14.75 L 8.796875 -14.75 L 8.796875 -2.171875 L 18.234375 -2.171875 L 18.234375 -6.109375 L 21.296875 -6.109375 L 21.296875 0 L 2.171875 0 Z M 9.765625 -13.65625 L 13.5625 -13.65625 L 13.5625 -16.234375 L 14.109375 -16.234375 L 14.109375 -13.140625 L 10.3125 -13.140625 L 10.3125 -2.984375 L 9.765625 -2.984375 Z M 2.765625 -13.65625 L 5.140625 -13.65625 L 5.140625 -13.140625 L 2.765625 -13.140625 Z M 22.265625 0.953125 L 22.265625 -5.359375 L 22.8125 -5.359375 L 22.8125 1.46875 L 2.984375 1.46875 L 2.984375 0.953125 Z M 22.265625 0.953125 "/></g></g></g><g fill="#004aad" fill-opacity="1"><g transform="translate(202.147798, 240.655699)"><g><path d="M 2.453125 -4.890625 L 5.234375 -4.890625 C 6.429688 -3.804688 7.710938 -3.007812 9.078125 -2.5 C 10.453125 -2 11.890625 -1.75 13.390625 -1.75 C 14.035156 -1.75 14.628906 -1.8125 15.171875 -1.9375 C 15.722656 -2.070312 16.195312 -2.25 16.59375 -2.46875 C 16.988281 -2.6875 17.296875 -2.945312 17.515625 -3.25 C 17.742188 -3.550781 17.859375 -3.875 17.859375 -4.21875 C 17.859375 -4.613281 17.726562 -4.976562 17.46875 -5.3125 C 17.21875 -5.644531 16.8125 -5.945312 16.25 -6.21875 C 15.695312 -6.488281 14.984375 -6.722656 14.109375 -6.921875 C 13.234375 -7.128906 12.179688 -7.296875 10.953125 -7.421875 C 9.523438 -7.566406 8.304688 -7.800781 7.296875 -8.125 C 6.285156 -8.457031 5.460938 -8.859375 4.828125 -9.328125 C 4.191406 -9.804688 3.722656 -10.332031 3.421875 -10.90625 C 3.128906 -11.488281 2.984375 -12.101562 2.984375 -12.75 C 2.984375 -13.34375 3.15625 -13.914062 3.5 -14.46875 C 3.84375 -15.03125 4.351562 -15.523438 5.03125 -15.953125 C 5.71875 -16.390625 6.566406 -16.738281 7.578125 -17 C 8.597656 -17.257812 9.773438 -17.390625 11.109375 -17.390625 C 11.890625 -17.390625 12.601562 -17.328125 13.25 -17.203125 C 13.90625 -17.085938 14.503906 -16.925781 15.046875 -16.71875 C 15.597656 -16.507812 16.101562 -16.257812 16.5625 -15.96875 C 17.019531 -15.6875 17.457031 -15.382812 17.875 -15.0625 L 17.875 -16.921875 L 20.921875 -16.921875 L 20.921875 -12.03125 L 17.875 -12.03125 C 17.59375 -12.476562 17.234375 -12.894531 16.796875 -13.28125 C 16.367188 -13.675781 15.867188 -14.015625 15.296875 -14.296875 C 14.734375 -14.585938 14.117188 -14.8125 13.453125 -14.96875 C 12.785156 -15.132812 12.082031 -15.21875 11.34375 -15.21875 C 10.570312 -15.21875 9.894531 -15.144531 9.3125 -15 C 8.726562 -14.863281 8.238281 -14.679688 7.84375 -14.453125 C 7.445312 -14.234375 7.148438 -13.988281 6.953125 -13.71875 C 6.753906 -13.445312 6.65625 -13.179688 6.65625 -12.921875 C 6.65625 -12.585938 6.742188 -12.269531 6.921875 -11.96875 C 7.097656 -11.664062 7.410156 -11.382812 7.859375 -11.125 C 8.304688 -10.863281 8.914062 -10.628906 9.6875 -10.421875 C 10.457031 -10.222656 11.4375 -10.050781 12.625 -9.90625 C 14.289062 -9.695312 15.6875 -9.429688 16.8125 -9.109375 C 17.9375 -8.796875 18.835938 -8.414062 19.515625 -7.96875 C 20.191406 -7.519531 20.675781 -7 20.96875 -6.40625 C 21.257812 -5.8125 21.40625 -5.144531 21.40625 -4.40625 C 21.40625 -3.84375 21.25 -3.273438 20.9375 -2.703125 C 20.632812 -2.128906 20.171875 -1.613281 19.546875 -1.15625 C 18.929688 -0.695312 18.148438 -0.320312 17.203125 -0.03125 C 16.253906 0.257812 15.132812 0.40625 13.84375 0.40625 C 13.039062 0.40625 12.269531 0.351562 11.53125 0.25 C 10.789062 0.144531 10.078125 -0.00390625 9.390625 -0.203125 C 8.710938 -0.410156 8.050781 -0.660156 7.40625 -0.953125 C 6.757812 -1.253906 6.125 -1.609375 5.5 -2.015625 L 5.5 0 L 2.453125 0 Z M 18.6875 -11.078125 L 21.90625 -11.078125 L 21.90625 -16.21875 L 22.46875 -16.21875 L 22.46875 -10.5625 L 18.6875 -10.5625 Z M 7.78125 -13 C 7.78125 -13.1875 7.878906 -13.359375 8.078125 -13.515625 C 8.273438 -13.671875 8.546875 -13.800781 8.890625 -13.90625 C 9.234375 -14.019531 9.632812 -14.109375 10.09375 -14.171875 C 10.5625 -14.234375 11.070312 -14.265625 11.625 -14.265625 C 12.445312 -14.265625 13.207031 -14.132812 13.90625 -13.875 C 14.601562 -13.625 15.1875 -13.289062 15.65625 -12.875 C 15.394531 -12.988281 15.109375 -13.097656 14.796875 -13.203125 C 14.484375 -13.304688 14.148438 -13.398438 13.796875 -13.484375 C 13.453125 -13.566406 13.09375 -13.632812 12.71875 -13.6875 C 12.351562 -13.738281 11.992188 -13.765625 11.640625 -13.765625 C 10.648438 -13.765625 9.835938 -13.679688 9.203125 -13.515625 C 8.566406 -13.359375 8.09375 -13.1875 7.78125 -13 Z M 3.390625 -9.484375 C 3.691406 -9.085938 4.046875 -8.726562 4.453125 -8.40625 C 4.867188 -8.09375 5.367188 -7.8125 5.953125 -7.5625 C 6.535156 -7.320312 7.21875 -7.109375 8 -6.921875 C 8.789062 -6.742188 9.710938 -6.597656 10.765625 -6.484375 C 11.785156 -6.367188 12.660156 -6.242188 13.390625 -6.109375 C 14.117188 -5.984375 14.722656 -5.84375 15.203125 -5.6875 C 15.679688 -5.539062 16.050781 -5.375 16.3125 -5.1875 C 16.570312 -5 16.742188 -4.78125 16.828125 -4.53125 C 16.566406 -4.675781 16.289062 -4.8125 16 -4.9375 C 15.707031 -5.0625 15.328125 -5.179688 14.859375 -5.296875 C 14.398438 -5.410156 13.820312 -5.519531 13.125 -5.625 C 12.425781 -5.726562 11.546875 -5.847656 10.484375 -5.984375 C 9.367188 -6.117188 8.382812 -6.300781 7.53125 -6.53125 C 6.675781 -6.769531 5.953125 -7.039062 5.359375 -7.34375 C 4.765625 -7.644531 4.300781 -7.976562 3.96875 -8.34375 C 3.644531 -8.71875 3.453125 -9.097656 3.390625 -9.484375 Z M 6.484375 0.953125 L 6.484375 -0.390625 C 7.566406 0.179688 8.703125 0.613281 9.890625 0.90625 C 11.078125 1.207031 12.390625 1.359375 13.828125 1.359375 C 14.929688 1.359375 15.992188 1.238281 17.015625 1 C 18.035156 0.769531 18.941406 0.421875 19.734375 -0.046875 C 20.535156 -0.523438 21.175781 -1.117188 21.65625 -1.828125 C 22.132812 -2.546875 22.375 -3.382812 22.375 -4.34375 C 22.375 -4.925781 22.3125 -5.453125 22.1875 -5.921875 C 22.070312 -6.398438 21.832031 -6.878906 21.46875 -7.359375 C 21.6875 -7.210938 21.882812 -7.023438 22.0625 -6.796875 C 22.238281 -6.578125 22.390625 -6.332031 22.515625 -6.0625 C 22.640625 -5.800781 22.738281 -5.519531 22.8125 -5.21875 C 22.882812 -4.925781 22.921875 -4.632812 22.921875 -4.34375 C 22.921875 -3.351562 22.679688 -2.472656 22.203125 -1.703125 C 21.734375 -0.929688 21.082031 -0.28125 20.25 0.25 C 19.425781 0.78125 18.460938 1.179688 17.359375 1.453125 C 16.253906 1.734375 15.070312 1.875 13.8125 1.875 C 12.40625 1.875 11.144531 1.75 10.03125 1.5 C 8.925781 1.257812 7.929688 0.921875 7.046875 0.484375 L 7.046875 1.46875 L 3.265625 1.46875 L 3.265625 0.953125 Z M 6.484375 0.953125 "/></g></g></g></svg>